<svg class="animated" id="freepik_stories-visual-data" xmlns="http://www.w3.org/2000/svg" viewBox="0 0 500 500" version="1.1" xmlns:xlink="http://www.w3.org/1999/xlink" xmlns:svgjs="http://svgjs.com/svgjs"><style>svg#freepik_stories-visual-data:not(.animated) .animable {opacity: 0;}svg#freepik_stories-visual-data.animated #freepik--Shadow--inject-28 {animation: 1s 1 forwards cubic-bezier(.36,-0.01,.5,1.38) lightSpeedLeft;animation-delay: 0s;}svg#freepik_stories-visual-data.animated #freepik--Floor--inject-28 {animation: 1s 1 forwards cubic-bezier(.36,-0.01,.5,1.38) slideLeft;animation-delay: 0s;}svg#freepik_stories-visual-data.animated #freepik--Plant--inject-28 {animation: 1s 1 forwards cubic-bezier(.36,-0.01,.5,1.38) zoomIn;animation-delay: 0s;}svg#freepik_stories-visual-data.animated #freepik--window-4--inject-28 {animation: 1s 1 forwards cubic-bezier(.36,-0.01,.5,1.38) slideLeft;animation-delay: 0s;}svg#freepik_stories-visual-data.animated #freepik--window-1--inject-28 {animation: 1s 1 forwards cubic-bezier(.36,-0.01,.5,1.38) slideDown;animation-delay: 0s;}svg#freepik_stories-visual-data.animated #freepik--Character--inject-28 {animation: 1s 1 forwards cubic-bezier(.36,-0.01,.5,1.38) zoomOut;animation-delay: 0s;}svg#freepik_stories-visual-data.animated #freepik--window-3--inject-28 {animation: 1s 1 forwards cubic-bezier(.36,-0.01,.5,1.38) slideUp;animation-delay: 0s;}svg#freepik_stories-visual-data.animated #freepik--window-2--inject-28 {animation: 1s 1 forwards cubic-bezier(.36,-0.01,.5,1.38) slideDown;animation-delay: 0s;}svg#freepik_stories-visual-data.animated #freepik--Cursor--inject-28 {animation: 1s 1 forwards cubic-bezier(.36,-0.01,.5,1.38) lightSpeedLeft;animation-delay: 0s;}            @keyframes lightSpeedLeft {              from {                transform: translate3d(-50%, 0, 0) skewX(20deg);                opacity: 0;              }              60% {                transform: skewX(-10deg);                opacity: 1;              }              80% {                transform: skewX(2deg);              }              to {                opacity: 1;                transform: translate3d(0, 0, 0);              }            }                    @keyframes slideLeft {                0% {                    opacity: 0;                    transform: translateX(-30px);                }                100% {                    opacity: 1;                    transform: translateX(0);                }            }                    @keyframes zoomIn {                0% {                    opacity: 0;                    transform: scale(0.5);                }                100% {                    opacity: 1;                    transform: scale(1);                }            }                    @keyframes slideDown {                0% {                    opacity: 0;                    transform: translateY(-30px);                }                100% {                    opacity: 1;                    transform: translateY(0);                }            }                    @keyframes zoomOut {                0% {                    opacity: 0;                    transform: scale(1.5);                }                100% {                    opacity: 1;                    transform: scale(1);                }            }                    @keyframes slideUp {                0% {                    opacity: 0;                    transform: translateY(30px);                }                100% {                    opacity: 1;                    transform: inherit;                }            }        </style><g id="freepik--Shadow--inject-28" class="animable" style="transform-origin: 250px 430.88px;"><ellipse cx="250" cy="430.88" rx="213.86" ry="24.68" style="fill: rgb(235, 235, 235); transform-origin: 250px 430.88px;" id="el6cqldqn27c3" class="animable"></ellipse></g><g id="freepik--Floor--inject-28" class="animable" style="transform-origin: 250px 397.49px;"><polygon points="32.01 397.49 86.51 397.25 141 397.16 250 396.99 359 397.16 413.49 397.25 467.99 397.49 413.49 397.74 359 397.82 250 397.99 141 397.82 86.51 397.74 32.01 397.49" style="fill: rgb(38, 50, 56); transform-origin: 250px 397.49px;" id="eldcz9j1ekq3k" class="animable"></polygon></g><g id="freepik--Plant--inject-28" class="animable" style="transform-origin: 424.61px 297.3px;"><path d="M422,242.94s-21.7-3-16.63-29.24C405.35,213.7,429.6,219.15,422,242.94Z" style="fill: rgb(108, 74, 182); transform-origin: 414.038px 228.32px;" id="elq0yjqm667d" class="animable"></path><g id="elfyfr6uegvhb"><path d="M422,242.94s-21.7-3-16.63-29.24C405.35,213.7,429.6,219.15,422,242.94Z" style="opacity: 0.1; transform-origin: 414.038px 228.32px;" class="animable"></path></g><path d="M420.88,237.47c-.42-1.32-.92-2.62-1.47-3.9,0-.17-.05-.34-.06-.5l-.09-1.08c-.06-.78-.11-1.56-.16-2.35-.09-1.56-.19-3.13-.21-4.7,0-.08-.13-.08-.14,0,0,1.57,0,3.13,0,4.7,0,.78.07,1.57.13,2.35l0,.52a46.08,46.08,0,0,0-4.35-7.44,38.23,38.23,0,0,0-2.37-3c-.87-1-1.78-1.93-2.66-2.91-.05-.07-.15,0-.09.09a38.3,38.3,0,0,1,4.18,5.56c.66,1,1.29,2,1.88,3.07l-.2-.08-.78-.31c-.59-.23-1.18-.46-1.77-.67l-3.49-1.3c-.07,0-.12.09-.05.12,1.16.46,2.3,1,3.44,1.44l1.68.72.85.35a2.42,2.42,0,0,0,.57.2c.44.79.88,1.58,1.27,2.38a57.18,57.18,0,0,1,2.66,6.25l.15.45a12.59,12.59,0,0,0-1.78-.85l-2.24-1c-1.52-.7-3-1.4-4.5-2.23-.07,0-.13.08-.06.12,1.49.81,3,1.68,4.45,2.49.74.41,1.49.8,2.26,1.17a7.21,7.21,0,0,0,2,.82,25.44,25.44,0,0,1,1.42,6.15c.24,3,.22,6,.28,8.92,0,0,.08,0,.08,0,.22-2.69.34-5.41.35-8.12A23.35,23.35,0,0,0,420.88,237.47Z" style="fill: rgb(38, 50, 56); transform-origin: 415.603px 236.076px;" id="elsxdf7imzaw8" class="animable"></path><path d="M417.54,222.07a25.46,25.46,0,0,0-.21,4.62s.06,0,.06,0c.09-1.53.1-3.06.28-4.58C417.68,222,417.55,222,417.54,222.07Z" style="fill: rgb(38, 50, 56); transform-origin: 417.487px 224.356px;" id="elgfki9qjdtfe" class="animable"></path><path d="M411.34,223.38a16.88,16.88,0,0,1-2.8-1.37c-.07,0-.13.07-.06.11a10.76,10.76,0,0,0,2.82,1.35C411.35,223.48,411.39,223.4,411.34,223.38Z" style="fill: rgb(38, 50, 56); transform-origin: 409.906px 222.74px;" id="eltnfoduuavcr" class="animable"></path><path d="M422.67,284.54c0-2.4-.06-4.8-.09-7.2q-.06-11.94-.25-23.89-.18-9.49-.44-19s0-.06-.06-.08c0-1.73,0-3.45,0-5.18,0,0-.05-.06-.1-.06s-.1,0-.1.06l0,5.19a.09.09,0,0,0-.05.08c-.32,11.25-.61,22.51-.68,33.76,0,2.29,0,4.58,0,6.87-.07,7.34-.11,14.67-.08,22l0,3.51c0,6.71.07,13.43.07,20.14,0,.36.41.54.83.56s1-.18,1-.59c0-7.4.05-14.81.05-22.21C422.69,293.87,422.71,289.2,422.67,284.54Z" style="fill: rgb(38, 50, 56); transform-origin: 421.79px 275.216px;" id="eltsrks8y340p" class="animable"></path><path d="M413.61,277.25s-10.44-7.73-20.35-2.51-11.46,25.37-11.46,25.37,14.55,2.09,23.71-6.63C414.34,285.07,413.61,277.25,413.61,277.25Z" style="fill: rgb(108, 74, 182); transform-origin: 397.712px 286.63px;" id="elgt26xdzfv4a" class="animable"></path><path d="M416.46,277.73a12.45,12.45,0,0,0-6-.79,9.25,9.25,0,0,0-1.28-.13l-1.47-.11-3.05-.21c-2.06-.16-4.12-.28-6.18-.49-.07,0-.09.12,0,.13,2,.26,4.06.55,6.1.76,1.05.1,2.1.21,3.15.29l.76.07-.92.23a25.21,25.21,0,0,0-4.73,1.92c-.83.15-1.64.38-2.45.57-1.29.31-2.58.64-3.86,1-2.54.66-5.05,1.41-7.56,2.14-.08,0-.05.15,0,.13,2.51-.62,5-1.19,7.56-1.79,1.22-.29,2.45-.57,3.67-.87l1-.23a30.59,30.59,0,0,0-7.42,6.45,40.43,40.43,0,0,0-5.16,8.14c0,.07.07.14.11.07a39.53,39.53,0,0,1,6.24-8.19c0,.14-.09.28-.13.42-.2.61-.39,1.22-.58,1.84-.39,1.23-.78,2.46-1.15,3.69,0,.08.1.11.13,0,.44-1.19.86-2.39,1.28-3.58.2-.59.41-1.18.62-1.77l.31-.91c0-.1.07-.19.1-.28a36.78,36.78,0,0,1,3.7-3.16,29,29,0,0,1,5.54-3.18c0,.18-.06.37-.1.54-.1.47-.21.95-.31,1.43-.2,1-.39,2-.59,3-.39,2-.63,4.06-1,6.08,0,.09.11.12.13,0,.46-2,1.07-4,1.52-6.07.23-1,.46-2,.67-3.06.1-.48.19-.95.29-1.43.05-.27.11-.53.14-.8l.57-.24a16.42,16.42,0,0,1,8.69-1.18,8.51,8.51,0,0,1,6.28,5c.1.23.45.09.4-.15A8.07,8.07,0,0,0,416.46,277.73Z" style="fill: rgb(38, 50, 56); transform-origin: 405.052px 285.52px;" id="el2l2ll6ohdra" class="animable"></path><path d="M400.47,286.33c-.29,1.32-.58,2.65-.88,4a29.83,29.83,0,0,0-.73,3.86s.07,0,.09,0a30.39,30.39,0,0,0,.88-3.89c.26-1.3.52-2.61.77-3.92C400.62,286.28,400.49,286.25,400.47,286.33Z" style="fill: rgb(38, 50, 56); transform-origin: 399.731px 290.237px;" id="elw80mbwmdvm8" class="animable"></path><path d="M390.38,289.69c-1.33.68-2.62,1.44-4,2-.09,0,0,.16.06.12a42.89,42.89,0,0,0,4-2.07S390.41,289.68,390.38,289.69Z" style="fill: rgb(38, 50, 56); transform-origin: 388.391px 290.753px;" id="el5j6obfkx1zg" class="animable"></path><path d="M416,263.05s-12.76.81-18.7-7.6-4.6-20.43-4.6-20.43,13.4,1.63,18.72,7.67S416,263.05,416,263.05Z" style="fill: rgb(108, 74, 182); transform-origin: 404.303px 249.046px;" id="elkx5zlbrggm" class="animable"></path><path d="M421.94,275.64c-.44-1.37-1-2.72-1.5-4.06s-1-2.56-1.59-3.82a79.21,79.21,0,0,0-3.82-7.52c-.9-1.55-1.87-3.05-2.86-4.54,0-.22-.07-.45-.1-.68l-.18-1.18c-.12-.81-.27-1.61-.4-2.42-.29-1.76-.66-3.51-.94-5.28,0-.08-.14-.08-.13,0,.26,1.74.43,3.49.68,5.23.12.86.23,1.72.36,2.57,0,.31.09.62.14.93a90.54,90.54,0,0,0-6.31-8.19c-.3-.35-.62-.7-.93-1,0-.1-.08-.2-.12-.3s-.19-.48-.28-.73c-.18-.5-.37-1-.55-1.52-.36-1-.68-2-1-3,0-.08-.15,0-.13,0,.26,1,.53,2.09.84,3.12.15.5.31,1,.49,1.49l.09.24c-1.63-1.77-3.33-3.49-5.05-5.18-.06-.06-.15,0-.09.1a91.52,91.52,0,0,1,9,11.07,7.77,7.77,0,0,0-.95-.24c-1-.19-2-.33-3-.46-2.08-.26-4.15-.52-6.22-.85-.09,0-.12.11,0,.13,2,.39,3.94.83,5.9,1.28.93.22,1.86.4,2.79.58a18.57,18.57,0,0,1,2.24.64l.63.88q1.4,2.06,2.71,4.16l-1.3-.26c-1-.19-2-.37-3-.53-1.94-.32-3.89-.66-5.81-1.09a.06.06,0,1,0,0,.12c1.95.46,3.88,1,5.82,1.51q1.4.38,2.82.69c.47.1.94.21,1.41.3a2.62,2.62,0,0,0,.58.1c1.86,3,3.61,6.12,5.23,9.27q1.06,2.08,2.06,4.21c.68,1.44,1.27,2.92,1.9,4.39C421.58,276.08,422.05,276,421.94,275.64Z" style="fill: rgb(38, 50, 56); transform-origin: 409.634px 257.872px;" id="el6ugcy9ptzy9" class="animable"></path><path d="M408.89,246.31c-.25-1.21-.5-2.43-.77-3.64,0-.08-.15,0-.13,0,.24,1.19.47,2.39.69,3.59s.39,2.41.72,3.58a0,0,0,0,0,0,0A25.32,25.32,0,0,0,408.89,246.31Z" style="fill: rgb(38, 50, 56); transform-origin: 408.694px 246.237px;" id="elldodb0b93ei" class="animable"></path><path d="M401.44,246a17.27,17.27,0,0,0-1.83-.77l-1-.38-.49-.2a2,2,0,0,1-.54-.24c-.1-.07-.16.1-.06.12a2.11,2.11,0,0,1,.54.22l.49.22.93.41a18,18,0,0,0,1.88.75C401.47,246.11,401.51,246,401.44,246Z" style="fill: rgb(38, 50, 56); transform-origin: 399.472px 245.262px;" id="elhc7seeu4z" class="animable"></path><path d="M429,253s7.72-14.43,19.47-16.66,18.93,9.85,18.93,9.85-8.57,10.94-19.35,12.85S429,253,429,253Z" style="fill: rgb(108, 74, 182); transform-origin: 448.2px 247.701px;" id="elxmqks34x39n" class="animable"></path><path d="M456.36,242.82a31.59,31.59,0,0,0-9.21.11l.52-.28,2.61-1.34c1.8-.94,3.62-1.94,5.51-2.7a.07.07,0,1,0-.05-.12c-1.84.86-3.75,1.58-5.59,2.43-.92.42-1.83.86-2.72,1.34a19.34,19.34,0,0,0-1.79,1,32.29,32.29,0,0,0-7.47,2.48l1.47-1.6c1.09-1.2,2.17-2.45,3.37-3.55.07-.05,0-.15-.09-.09-1.23,1.12-2.53,2.15-3.72,3.31-.58.57-1.14,1.15-1.68,1.75-.26.3-.53.61-.79.93A30.95,30.95,0,0,0,421,267.72a.07.07,0,0,0,.13,0,35.38,35.38,0,0,1,8.63-14.61A33.92,33.92,0,0,1,445.48,244a34.56,34.56,0,0,1,10.86-1A.12.12,0,0,0,456.36,242.82Z" style="fill: rgb(38, 50, 56); transform-origin: 438.696px 253.117px;" id="el1gas65z14fk" class="animable"></path><g id="eljxydc48jxj"><path d="M467.42,246.21s-8.57,11-19.35,12.85c-8.22,1.46-15-2.83-17.73-4.94l-.6-1s5.57-4.69,16.09-7.4S467.42,246.21,467.42,246.21Z" style="opacity: 0.1; transform-origin: 448.58px 251.994px;" class="animable"></path></g><path d="M449.54,237.68a26.71,26.71,0,0,0-2.61,1.72,17.16,17.16,0,0,0-2.27,2.07.07.07,0,0,0,.1.1c.78-.68,1.57-1.35,2.37-2a25.47,25.47,0,0,1,2.48-1.78C449.68,237.75,449.61,237.64,449.54,237.68Z" style="fill: rgb(38, 50, 56); transform-origin: 447.139px 239.631px;" id="elm465t1pkpes" class="animable"></path><path d="M456,240.12l-1.31.52-1.31.54c-.09,0-.05.19.05.16l1.31-.54c.43-.17.86-.38,1.3-.55C456.1,240.22,456.06,240.09,456,240.12Z" style="fill: rgb(38, 50, 56); transform-origin: 454.7px 240.729px;" id="elieg2fig413" class="animable"></path><path d="M427.48,271.17s2.06,14.3,12.82,19.31,23.87,0,23.87,0S459,259.52,427.48,271.17Z" style="fill: rgb(108, 74, 182); transform-origin: 445.825px 280.628px;" id="el6ilecoga9fq" class="animable"></path><path d="M456.76,281.17c-1-.11-2-.28-3-.46l-1.45-.27c-.24-.05-.5-.11-.75-.15l-.87-.81a43.24,43.24,0,0,0-6.58-4.77,38.71,38.71,0,0,0-3.95-2h.21l3.54.16c2.36.11,4.72.16,7.08.31.08,0,.08-.13,0-.13-2.37-.16-4.73-.42-7.09-.63l-3.45-.3-1.77-.16-.45,0c-.62-.23-1.23-.45-1.86-.64a16.73,16.73,0,0,0-9.11-.51c-2.71.7-5.41,2.47-6.11,5.32,0,.1.13.17.17.07,1-2.38,3.66-3.58,6.05-4.08a14.48,14.48,0,0,1,4.87-.1,11.11,11.11,0,0,0,.54,2.17c.3,1,.59,2,.9,3,.61,2,1.28,4,1.87,6a.07.07,0,0,0,.13,0c-.5-2-.92-4-1.4-6-.24-1-.49-2-.74-3a14.68,14.68,0,0,0-.54-2,25.74,25.74,0,0,1,2.79.66,40.75,40.75,0,0,1,4.88,1.79c.16,1,.39,2,.62,3,.29,1.27.62,2.52,1,3.75a.06.06,0,0,0,.12,0,2,2,0,0,0-.05-.24h0c-.24-1.17-.5-2.34-.74-3.51-.2-.94-.39-1.89-.59-2.83a43.67,43.67,0,0,1,3.92,2c0,.29.1.59.14.86.08.49.17,1,.26,1.46.2,1.11.42,2.21.68,3.3a51.65,51.65,0,0,0,1.85,6.22s0,.06,0,.08l.06.07c0,.06.12,0,.11-.06-.5-2.12-1.07-4.22-1.54-6.35-.23-1.07-.46-2.13-.68-3.19l-.3-1.61c0-.15-.05-.31-.08-.47a41.2,41.2,0,0,1,4.19,2.79,45.09,45.09,0,0,1,6.42,5.85c.07.09.22,0,.15-.12a38.37,38.37,0,0,0-2.56-3.13c-.54-.58-1.1-1.14-1.68-1.69l.18,0,1.52.23c1,.13,2,.23,3,.34C456.81,281.31,456.84,281.18,456.76,281.17Z" style="fill: rgb(38, 50, 56); transform-origin: 438.977px 279.615px;" id="elwst8anycvcr" class="animable"></path><path d="M449.2,286h0l-.06-.37c0-.16-.11-.31-.13-.47h0c-.22-1-.4-1.92-.58-2.89,0-.06-.12,0-.11,0a11.71,11.71,0,0,0,.81,3.74s.09,0,.08,0Z" style="fill: rgb(38, 50, 56); transform-origin: 448.765px 284.127px;" id="elqd9ql6j1tb9" class="animable"></path><path d="M440.19,285.79s0-.05-.06-.06c-.3-1.26-.59-2.53-.85-3.81-.14-.67-.28-1.34-.41-2-.07-.36-.14-.72-.2-1.09a3.34,3.34,0,0,0-.23-.93.07.07,0,0,0-.12,0,6.32,6.32,0,0,0,.27,1.92c.13.7.26,1.4.42,2.09.31,1.41.66,2.82,1.06,4.21a.08.08,0,0,0,.15,0Z" style="fill: rgb(38, 50, 56); transform-origin: 439.27px 282.019px;" id="eltffe3jk8mwg" class="animable"></path><path d="M455.78,277.05c-2-.27-3.93-.55-5.9-.79-.08,0-.12.12,0,.13,2,.29,3.93.53,5.9.79C455.83,277.19,455.86,277.06,455.78,277.05Z" style="fill: rgb(38, 50, 56); transform-origin: 452.817px 276.72px;" id="el8gtmmwrivl4" class="animable"></path><path d="M422,237.61s-6.58-28.88,24.45-40.57C446.41,197,455,235.06,422,237.61Z" style="fill: rgb(108, 74, 182); transform-origin: 434.422px 217.325px;" id="elrr9rhsr4oqo" class="animable"></path><path d="M428.66,221.23c.12-.07.23-.15.34-.2l1.75-1,3.6-2c2.37-1.32,4.71-2.7,7.09-4,.08,0,0-.15-.07-.11-2.39,1.3-4.82,2.52-7.22,3.79l-3.56,1.88-1.45.77c1-2,2.14-3.89,3.35-5.75,1.63-2.47,3.4-4.83,5.25-7.13a.11.11,0,0,0-.15-.15,49.41,49.41,0,0,0-7.18,8.8c0-.1,0-.21,0-.3,0-.72.06-1.44.07-2.16,0-1.41-.05-2.82,0-4.23,0-.08-.13-.08-.13,0-.06,1.39-.22,2.78-.3,4.16,0,.69-.07,1.39-.09,2.08,0,.37,0,.8,0,1.21-.64,1-1.25,2.05-1.83,3.1a53.4,53.4,0,0,0-2.77,5.81c0-.72-.08-1.44-.12-2.16-.09-1.58-.29-3.15-.35-4.73,0-.09-.14-.09-.13,0,0,1.58-.05,3.16,0,4.75,0,.79,0,1.58.1,2.37l.06.88a52.24,52.24,0,0,0-2.34,7.94,82.58,82.58,0,0,0-1.16,8.72,0,0,0,0,0,0,0,46.82,46.82,0,0,1,1.65-7.78c.38-1.36.79-2.72,1.23-4.07,1.29-.6,2.52-1.36,3.77-2.05s2.6-1.42,3.89-2.13c2.59-1.42,5.18-2.87,7.85-4.12.08,0,0-.15-.07-.12-2.71,1.23-5.43,2.39-8.09,3.73-1.32.66-2.62,1.37-3.91,2.1-1.08.61-2.19,1.21-3.22,1.91.31-.9.62-1.79,1-2.68C426.41,225.94,427.48,223.55,428.66,221.23Z" style="fill: rgb(38, 50, 56); transform-origin: 431.447px 225.443px;" id="el13dhycvwsedb" class="animable"></path><path d="M426.05,214.63a.07.07,0,0,0-.14,0c.12,1.65.17,3.29.35,4.94a.07.07,0,1,0,.14,0C426.34,217.91,426.17,216.27,426.05,214.63Z" style="fill: rgb(38, 50, 56); transform-origin: 426.155px 217.1px;" id="elor2nsppvguj" class="animable"></path><path d="M440.92,220.14c-1.94.78-3.9,1.53-5.83,2.34,0,0,0,.11,0,.08,2-.73,3.89-1.53,5.84-2.29C441,220.24,441,220.11,440.92,220.14Z" style="fill: rgb(38, 50, 56); transform-origin: 438.036px 221.35px;" id="el2axbcfnr59w" class="animable"></path><path d="M443.87,206.82a51.12,51.12,0,0,0-5.51,3,.08.08,0,1,0,.08.14c1.8-1,3.64-2.06,5.5-3C444,206.9,444,206.79,443.87,206.82Z" style="fill: rgb(38, 50, 56); transform-origin: 441.149px 208.393px;" id="elkna8pwoxq4c" class="animable"></path><rect x="398.65" y="300.07" width="44.75" height="47.17" style="fill: rgb(55, 71, 79); transform-origin: 421.025px 323.655px;" id="el3lsiubkd3cn" class="animable"></rect><rect x="395.57" y="316.76" width="2.29" height="80.8" style="fill: rgb(38, 50, 56); transform-origin: 396.715px 357.16px;" id="el733af2vpd" class="animable"></rect><rect x="443.95" y="316.76" width="2.29" height="80.8" style="fill: rgb(38, 50, 56); transform-origin: 445.095px 357.16px;" id="eleh55127x0jt" class="animable"></rect><rect x="420.98" y="316.76" width="2.29" height="80.8" style="fill: rgb(38, 50, 56); transform-origin: 422.125px 357.16px;" id="elavw7v4419f7" class="animable"></rect><rect x="396.72" y="344.22" width="48.38" height="6.53" style="fill: rgb(38, 50, 56); transform-origin: 420.91px 347.485px;" id="ely4xyjuaxg6c" class="animable"></rect></g><g id="freepik--window-4--inject-28" class="animable" style="transform-origin: 353.315px 283.18px;"><g id="elaa2144ncwb4"><g style="opacity: 0.5; transform-origin: 353.315px 286.715px;" class="animable"><rect x="274.02" y="230.1" width="158.73" height="113.33" style="fill: rgb(235, 235, 235); transform-origin: 353.385px 286.765px;" id="elhi6vbnngsv" class="animable"></rect><path d="M432.75,343.43,274,343.7h-.26v-.27l-.11-113.33v-.37H274l158.73.1H433v.27Zm0,0-.27-113.33.27.27L274,230.48l.38-.38-.11,113.33-.27-.26Z" style="fill: rgb(235, 235, 235); transform-origin: 353.315px 286.715px;" id="elr5kd4jyuxi" class="animable"></path></g></g><rect x="274.02" y="222.66" width="158.73" height="7.44" style="fill: rgb(69, 90, 100); transform-origin: 353.385px 226.38px;" id="elk62fjw8qdo" class="animable"></rect><path d="M279.94,226.38a1.85,1.85,0,1,1-1.85-1.84A1.85,1.85,0,0,1,279.94,226.38Z" style="fill: rgb(199, 199, 199); transform-origin: 278.09px 226.39px;" id="elh53yw2r3ttb" class="animable"></path><path d="M287.48,226.38a1.85,1.85,0,1,1-1.85-1.84A1.85,1.85,0,0,1,287.48,226.38Z" style="fill: rgb(255, 255, 255); transform-origin: 285.63px 226.39px;" id="elon85ydevr8o" class="animable"></path><path d="M295,226.38a1.85,1.85,0,1,1-1.85-1.84A1.85,1.85,0,0,1,295,226.38Z" style="fill: rgb(108, 74, 182); transform-origin: 293.15px 226.39px;" id="el0ql4mmdhfqob" class="animable"></path><g id="elz9405q0tgv9"><rect x="391.57" y="250.7" width="11.46" height="74.3" style="fill: rgb(255, 255, 255); transform-origin: 397.3px 287.85px; transform: rotate(180deg);" class="animable"></rect></g><g id="eley90hqmifmk"><rect x="391.57" y="268.55" width="11.46" height="56.45" style="fill: rgb(108, 74, 182); transform-origin: 397.3px 296.775px; transform: rotate(180deg);" class="animable"></rect></g><g id="elwn64o9n1nop"><rect x="374.34" y="250.72" width="11.46" height="74.27" style="fill: rgb(255, 255, 255); transform-origin: 380.07px 287.855px; transform: rotate(180deg);" class="animable"></rect></g><g id="elzht13rbbld"><rect x="374.34" y="276.07" width="11.46" height="48.92" style="fill: rgb(69, 90, 100); transform-origin: 380.07px 300.53px; transform: rotate(180deg);" class="animable"></rect></g><g id="elhqoknw3n0ce"><rect x="357.1" y="250.7" width="11.46" height="74.3" style="fill: rgb(255, 255, 255); transform-origin: 362.83px 287.85px; transform: rotate(180deg);" class="animable"></rect></g><g id="el1zha6zjwjb4"><rect x="357.1" y="302.39" width="11.46" height="22.6" style="fill: rgb(108, 74, 182); transform-origin: 362.83px 313.69px; transform: rotate(180deg);" class="animable"></rect></g><g id="elygvtqme2hmt"><rect x="339.87" y="250.72" width="11.46" height="74.27" style="fill: rgb(255, 255, 255); transform-origin: 345.6px 287.855px; transform: rotate(180deg);" class="animable"></rect></g><g id="elvpozv8mdi5d"><rect x="339.87" y="262.98" width="11.46" height="62.02" style="fill: rgb(69, 90, 100); transform-origin: 345.6px 293.99px; transform: rotate(180deg);" class="animable"></rect></g><g id="el15tqk6vv8rf"><rect x="322.63" y="250.72" width="11.46" height="74.27" style="fill: rgb(255, 255, 255); transform-origin: 328.36px 287.855px; transform: rotate(180deg);" class="animable"></rect></g><g id="elqf0pzwcbqzf"><rect x="322.63" y="258.06" width="11.46" height="66.93" style="fill: rgb(108, 74, 182); transform-origin: 328.36px 291.525px; transform: rotate(180deg);" class="animable"></rect></g><g id="el2ci5g6rmhp3"><rect x="305.4" y="250.72" width="11.46" height="74.27" style="fill: rgb(255, 255, 255); transform-origin: 311.13px 287.855px; transform: rotate(180deg);" class="animable"></rect></g><g id="elvp5kbdchvcn"><rect x="305.4" y="282.59" width="11.46" height="42.41" style="fill: rgb(69, 90, 100); transform-origin: 311.13px 303.795px; transform: rotate(180deg);" class="animable"></rect></g><polygon points="297.76 250.7 297.93 269.27 298.05 287.85 298.17 325 297.76 324.59 325.99 324.58 354.21 324.62 382.44 324.76 410.66 325 382.44 325.24 354.21 325.38 325.99 325.42 297.76 325.4 297.36 325.4 297.36 325 297.48 287.85 297.6 269.27 297.76 250.7" style="fill: rgb(199, 199, 199); transform-origin: 354.01px 288.06px;" id="elfdxk7ycnm0g" class="animable"></polygon><path d="M296.11,250.7a6.27,6.27,0,0,1,1.71-.22,5.8,5.8,0,0,1,1.7.22,6.15,6.15,0,0,1-1.7.22A6.27,6.27,0,0,1,296.11,250.7Z" style="fill: rgb(199, 199, 199); transform-origin: 297.815px 250.7px;" id="eltw2z0ch8cwm" class="animable"></path><path d="M296.11,258.06a5.89,5.89,0,0,1,1.71-.21,5.79,5.79,0,0,1,1.7.21,5.48,5.48,0,0,1-1.7.22A5.91,5.91,0,0,1,296.11,258.06Z" style="fill: rgb(199, 199, 199); transform-origin: 297.815px 258.065px;" id="elnhj0cu09gh" class="animable"></path><path d="M296.11,265.43a6.27,6.27,0,0,1,1.71-.22,6.15,6.15,0,0,1,1.7.22,6.15,6.15,0,0,1-1.7.22A6.27,6.27,0,0,1,296.11,265.43Z" style="fill: rgb(199, 199, 199); transform-origin: 297.815px 265.43px;" id="elmj4uf9az9hf" class="animable"></path><path d="M296.11,272.8a6.27,6.27,0,0,1,1.71-.22,6.15,6.15,0,0,1,1.7.22,6.15,6.15,0,0,1-1.7.22A6.27,6.27,0,0,1,296.11,272.8Z" style="fill: rgb(199, 199, 199); transform-origin: 297.815px 272.8px;" id="elpw9bux8c2gf" class="animable"></path><path d="M296.11,280.17a6.27,6.27,0,0,1,1.71-.22,6.15,6.15,0,0,1,1.7.22,6.15,6.15,0,0,1-1.7.22A6.27,6.27,0,0,1,296.11,280.17Z" style="fill: rgb(199, 199, 199); transform-origin: 297.815px 280.17px;" id="eli5oyn3op0p" class="animable"></path><path d="M296.11,287.53a5.89,5.89,0,0,1,1.71-.21,5.79,5.79,0,0,1,1.7.21,5.48,5.48,0,0,1-1.7.22A5.91,5.91,0,0,1,296.11,287.53Z" style="fill: rgb(199, 199, 199); transform-origin: 297.815px 287.535px;" id="elev5qpy4ic39" class="animable"></path><path d="M296.11,294.9a6.27,6.27,0,0,1,1.71-.22,6.15,6.15,0,0,1,1.7.22,6.15,6.15,0,0,1-1.7.22A6.27,6.27,0,0,1,296.11,294.9Z" style="fill: rgb(199, 199, 199); transform-origin: 297.815px 294.9px;" id="el18rhenxxpv2" class="animable"></path><path d="M296.11,302.27a6.27,6.27,0,0,1,1.71-.22,6.15,6.15,0,0,1,1.7.22,6.15,6.15,0,0,1-1.7.22A6.27,6.27,0,0,1,296.11,302.27Z" style="fill: rgb(199, 199, 199); transform-origin: 297.815px 302.27px;" id="eljr4i21qzvib" class="animable"></path><path d="M296.11,309.64a6.27,6.27,0,0,1,1.71-.22,6.15,6.15,0,0,1,1.7.22,6.15,6.15,0,0,1-1.7.22A6.27,6.27,0,0,1,296.11,309.64Z" style="fill: rgb(199, 199, 199); transform-origin: 297.815px 309.64px;" id="elvw0ccw5xsq" class="animable"></path><path d="M296.11,317a5.89,5.89,0,0,1,1.71-.21,5.79,5.79,0,0,1,1.7.21,5.48,5.48,0,0,1-1.7.22A5.91,5.91,0,0,1,296.11,317Z" style="fill: rgb(199, 199, 199); transform-origin: 297.815px 317.005px;" id="elvn51841pws" class="animable"></path></g><g id="freepik--window-1--inject-28" class="animable" style="transform-origin: 163.515px 161.5px;"><g id="elgjrfxnzj3t5"><g style="opacity: 0.5; transform-origin: 163.515px 164.75px;" class="animable"><rect x="90.28" y="117.08" width="146.61" height="95.44" style="fill: rgb(235, 235, 235); transform-origin: 163.585px 164.8px;" id="elnen4yd28m9" class="animable"></rect><path d="M236.89,212.52l-146.61.27H90v-.27l-.11-95.44v-.37h.37l146.61.1h.27v.27l-.09,47.8Zm0,0-.18-47.79-.09-47.65.27.27-146.61.11.38-.38-.11,95.44-.27-.26Z" style="fill: rgb(235, 235, 235); transform-origin: 163.515px 164.75px;" id="elzbf8won344a" class="animable"></path></g></g><rect x="90.28" y="110.21" width="146.61" height="6.88" style="fill: rgb(69, 90, 100); transform-origin: 163.585px 113.65px;" id="elrdwhuhi88f" class="animable"></rect><path d="M95.75,113.65A1.71,1.71,0,1,1,94,111.94,1.71,1.71,0,0,1,95.75,113.65Z" style="fill: rgb(199, 199, 199); transform-origin: 94.04px 113.65px;" id="elov1gtanjeo" class="animable"></path><path d="M102.71,113.65a1.71,1.71,0,1,1-1.7-1.71A1.7,1.7,0,0,1,102.71,113.65Z" style="fill: rgb(255, 255, 255); transform-origin: 101px 113.65px;" id="el6p0qdo1iopr" class="animable"></path><path d="M109.67,113.65a1.71,1.71,0,1,1-1.7-1.71A1.7,1.7,0,0,1,109.67,113.65Z" style="fill: rgb(108, 74, 182); transform-origin: 107.96px 113.65px;" id="elhp0iioexheu" class="animable"></path><rect x="117.29" y="130.96" width="103.24" height="10.06" style="fill: rgb(255, 255, 255); transform-origin: 168.91px 135.99px;" id="el0siurge7oek" class="animable"></rect><rect x="120.65" y="133.81" width="51.34" height="4.36" style="fill: rgb(108, 74, 182); transform-origin: 146.32px 135.99px;" id="elhjrgvb1zxe" class="animable"></rect><rect x="117.29" y="145.73" width="103.24" height="10.06" style="fill: rgb(255, 255, 255); transform-origin: 168.91px 150.76px;" id="elzqxjnf45kg" class="animable"></rect><rect x="120.65" y="148.58" width="80.11" height="4.36" style="fill: rgb(69, 90, 100); transform-origin: 160.705px 150.76px;" id="elepnb6md89df" class="animable"></rect><rect x="117.29" y="160.5" width="103.24" height="10.06" style="fill: rgb(255, 255, 255); transform-origin: 168.91px 165.53px;" id="el515rqyiy486" class="animable"></rect><rect x="120.65" y="163.35" width="20.08" height="4.36" style="fill: rgb(108, 74, 182); transform-origin: 130.69px 165.53px;" id="eliqzdeh5nv" class="animable"></rect><rect x="117.29" y="175.27" width="103.24" height="10.06" style="fill: rgb(255, 255, 255); transform-origin: 168.91px 180.3px;" id="elbknbm7yzrh9" class="animable"></rect><rect x="120.65" y="178.12" width="63.64" height="4.36" style="fill: rgb(69, 90, 100); transform-origin: 152.47px 180.3px;" id="elxtz1ks4y5k" class="animable"></rect><rect x="117.29" y="190.04" width="103.24" height="10.06" style="fill: rgb(255, 255, 255); transform-origin: 168.91px 195.07px;" id="el38h5srzei5e" class="animable"></rect><rect x="120.65" y="192.9" width="73.08" height="4.36" style="fill: rgb(108, 74, 182); transform-origin: 157.19px 195.08px;" id="elf331co0rgvo" class="animable"></rect><path d="M104.32,136.31a1.17,1.17,0,0,1-2.34.12h0a2.72,2.72,0,0,1,0-.28,2.65,2.65,0,0,1,.17-1,1.68,1.68,0,0,1,.62-.83,1.33,1.33,0,0,1,.72-.22.27.27,0,0,1,.29.25.28.28,0,0,1-.27.28.92.92,0,0,0-.45.14,1,1,0,0,0-.31.34,1.34,1.34,0,0,0-.06.12,1.2,1.2,0,0,1,.47-.1A1.18,1.18,0,0,1,104.32,136.31Zm-.54,0a.64.64,0,1,0-.63.63A.63.63,0,0,0,103.78,136.31Z" style="fill: rgb(38, 50, 56); transform-origin: 103.149px 135.82px;" id="el6wfbzp5s6m" class="animable"></path><path d="M105.07,135.78a2.13,2.13,0,0,1,.33-1.15,1,1,0,0,1,1.8,0,2,2,0,0,1,.32,1.15,2.08,2.08,0,0,1-.32,1.16,1,1,0,0,1-1.8,0A2.17,2.17,0,0,1,105.07,135.78Zm1.92,0a1.56,1.56,0,0,0-.24-.86.55.55,0,0,0-.45-.29.58.58,0,0,0-.46.29,1.65,1.65,0,0,0-.23.86,1.62,1.62,0,0,0,.23.86.59.59,0,0,0,.46.3.56.56,0,0,0,.45-.3A1.54,1.54,0,0,0,107,135.78Z" style="fill: rgb(38, 50, 56); transform-origin: 106.295px 135.785px;" id="el7stvkyquz7k" class="animable"></path><path d="M108.46,134.93h0a.8.8,0,1,1,1.6,0h0a.8.8,0,1,1-1.6,0Zm1.17,0h0c0-.27-.16-.5-.38-.5s-.36.23-.36.49h0c0,.27.16.49.37.49S109.63,135.19,109.63,134.93Zm-.61,2.26,2.22-3a.19.19,0,0,1,.35.1.25.25,0,0,1,0,.13l-2.22,3a.2.2,0,0,1-.17.09.18.18,0,0,1-.19-.19A.17.17,0,0,1,109,137.19Zm1.49-.53h0a.8.8,0,1,1,1.59,0h0a.81.81,0,0,1-.8.86A.8.8,0,0,1,110.51,136.66Zm1.16,0h0c0-.27-.15-.49-.37-.49s-.36.22-.36.48h0c0,.27.15.49.37.49S111.67,136.92,111.67,136.66Z" style="fill: rgb(38, 50, 56); transform-origin: 110.282px 135.811px;" id="elascf42ysr5s" class="animable"></path><path d="M102,150a1.17,1.17,0,0,1,2.34-.12h0a2.53,2.53,0,0,1,0,.28,2.87,2.87,0,0,1-.17,1,1.67,1.67,0,0,1-.62.82,1.37,1.37,0,0,1-.73.23.26.26,0,0,1-.28-.25.28.28,0,0,1,.26-.28.93.93,0,0,0,.46-.14.91.91,0,0,0,.3-.34.75.75,0,0,0,.07-.12,1.19,1.19,0,0,1-.47.09A1.17,1.17,0,0,1,102,150Zm.53,0a.64.64,0,0,0,.64.64.64.64,0,0,0,.63-.64.63.63,0,0,0-.63-.63A.64.64,0,0,0,102.51,150Z" style="fill: rgb(38, 50, 56); transform-origin: 103.171px 150.49px;" id="el6i62w39yf7j" class="animable"></path><path d="M105.07,150.55a2.13,2.13,0,0,1,.33-1.15,1,1,0,0,1,1.8,0,2,2,0,0,1,.32,1.15,2.08,2.08,0,0,1-.32,1.16,1,1,0,0,1-1.8,0A2.17,2.17,0,0,1,105.07,150.55Zm1.92,0a1.59,1.59,0,0,0-.24-.86.55.55,0,0,0-.45-.29.58.58,0,0,0-.46.29,1.68,1.68,0,0,0-.23.86,1.62,1.62,0,0,0,.23.86.59.59,0,0,0,.46.3.56.56,0,0,0,.45-.3A1.54,1.54,0,0,0,107,150.55Z" style="fill: rgb(38, 50, 56); transform-origin: 106.295px 150.555px;" id="elopbxxr3f4f" class="animable"></path><path d="M108.46,149.7h0a.8.8,0,1,1,1.6,0h0a.8.8,0,1,1-1.6,0Zm1.17,0h0c0-.27-.16-.5-.38-.5s-.36.23-.36.49h0c0,.27.16.49.37.49S109.63,150,109.63,149.7ZM109,152l2.22-3a.18.18,0,0,1,.16-.08.18.18,0,0,1,.19.19.25.25,0,0,1,0,.12l-2.22,3a.2.2,0,0,1-.17.09.18.18,0,0,1-.19-.19A.17.17,0,0,1,109,152Zm1.49-.53h0a.8.8,0,1,1,1.59,0h0a.82.82,0,0,1-.8.87A.81.81,0,0,1,110.51,151.43Zm1.16,0h0c0-.27-.15-.49-.37-.49s-.36.22-.36.48h0c0,.28.15.49.37.49S111.67,151.69,111.67,151.43Z" style="fill: rgb(38, 50, 56); transform-origin: 110.272px 150.62px;" id="elo7ahmkwoii8" class="animable"></path><path d="M103.8,165a1.17,1.17,0,0,1,.36.85,1.2,1.2,0,0,1-2,.85.27.27,0,0,1,0-.39.28.28,0,0,1,.38,0,.63.63,0,0,0,.46.19.66.66,0,0,0,.47-.19.63.63,0,0,0,.19-.46.62.62,0,0,0-.19-.46.63.63,0,0,0-.46-.19.25.25,0,0,1-.2-.09h0a.27.27,0,0,1,0-.38l.5-.51h-.79a.27.27,0,1,1,0-.54h1.43a.27.27,0,0,1,.28.27.28.28,0,0,1,0,.13l-.05.07-.6.63A.94.94,0,0,1,103.8,165Z" style="fill: rgb(38, 50, 56); transform-origin: 103.157px 165.343px;" id="el129dq9yq5dhg" class="animable"></path><path d="M104.92,165.32a2.13,2.13,0,0,1,.33-1.15,1,1,0,0,1,1.79,0,2.19,2.19,0,0,1,0,2.31,1,1,0,0,1-1.79,0A2.14,2.14,0,0,1,104.92,165.32Zm1.91,0a1.68,1.68,0,0,0-.23-.86.55.55,0,0,0-.45-.29.56.56,0,0,0-.46.29,1.59,1.59,0,0,0-.23.86,1.54,1.54,0,0,0,.23.86.58.58,0,0,0,.46.3.56.56,0,0,0,.45-.3A1.62,1.62,0,0,0,106.83,165.32Z" style="fill: rgb(38, 50, 56); transform-origin: 106.145px 165.325px;" id="elrra0cyaqox" class="animable"></path><path d="M108.31,164.47h0a.82.82,0,0,1,.8-.87.81.81,0,0,1,.79.86h0a.81.81,0,0,1-.8.86A.8.8,0,0,1,108.31,164.47Zm1.16,0h0c0-.27-.15-.49-.37-.49s-.36.22-.36.48h0c0,.27.15.49.37.49S109.47,164.73,109.47,164.47Zm-.61,2.26,2.22-3a.19.19,0,0,1,.17-.09.19.19,0,0,1,.19.19.17.17,0,0,1,0,.12l-2.21,3a.23.23,0,0,1-.17.08.18.18,0,0,1-.19-.19A.25.25,0,0,1,108.86,166.73Zm1.49-.53h0a.8.8,0,1,1,1.6,0h0a.83.83,0,0,1-.81.87A.81.81,0,0,1,110.35,166.2Zm1.17,0h0c0-.27-.16-.49-.38-.49s-.36.22-.36.48h0c0,.28.16.49.37.49S111.52,166.46,111.52,166.2Z" style="fill: rgb(38, 50, 56); transform-origin: 110.13px 165.335px;" id="elkcwi6396mol" class="animable"></path><path d="M104.14,178.77l-1.21,2.86a.26.26,0,0,1-.25.16l-.1,0a.27.27,0,0,1-.14-.35l1-2.48h-1.25a.27.27,0,0,1-.26-.27.27.27,0,0,1,.26-.27h1.71a.21.21,0,0,1,.1,0h0v0l0,0,0,0v0s0,0,0,0v0a0,0,0,0,1,0,0,.17.17,0,0,1,0,.1A.43.43,0,0,1,104.14,178.77Z" style="fill: rgb(38, 50, 56); transform-origin: 103.035px 180.102px;" id="el6zf5dxpxbbs" class="animable"></path><path d="M104.71,180.1a2.14,2.14,0,0,1,.33-1.16,1.09,1.09,0,0,1,.9-.54,1.12,1.12,0,0,1,.9.54,2.24,2.24,0,0,1,0,2.31,1.12,1.12,0,0,1-.9.54,1.09,1.09,0,0,1-.9-.54A2.13,2.13,0,0,1,104.71,180.1Zm1.91,0a1.54,1.54,0,0,0-.23-.86.56.56,0,0,0-.45-.3.59.59,0,0,0-.46.3,1.7,1.7,0,0,0,0,1.71.59.59,0,0,0,.46.3.56.56,0,0,0,.45-.3A1.53,1.53,0,0,0,106.62,180.1Z" style="fill: rgb(38, 50, 56); transform-origin: 105.935px 180.095px;" id="ellci2s86kqac" class="animable"></path><path d="M108.1,179.24h0a.82.82,0,0,1,.8-.87.81.81,0,0,1,.79.86h0a.8.8,0,1,1-1.59,0Zm1.16,0h0c0-.27-.15-.49-.37-.49s-.36.22-.36.48h0c0,.28.15.49.37.49S109.26,179.5,109.26,179.24Zm-.61,2.26,2.22-3a.2.2,0,0,1,.17-.09.19.19,0,0,1,.19.19.21.21,0,0,1,0,.12l-2.22,3a.21.21,0,0,1-.17.08.18.18,0,0,1-.19-.19A.25.25,0,0,1,108.65,181.5Zm1.49-.53h0a.82.82,0,0,1,.81-.86.81.81,0,0,1,.79.85h0a.83.83,0,0,1-.8.87A.81.81,0,0,1,110.14,181Zm1.17,0h0c0-.27-.16-.49-.37-.49s-.37.22-.37.48h0c0,.28.16.5.38.5S111.31,181.23,111.31,181Z" style="fill: rgb(38, 50, 56); transform-origin: 109.918px 180.1px;" id="ely2zyls1k6h8" class="animable"></path><path d="M104.23,195.41a1.15,1.15,0,0,1-1.15,1.15,1.15,1.15,0,0,1-.64-2.11.8.8,0,1,1,1.28,0A1.15,1.15,0,0,1,104.23,195.41Zm-.52,0a.63.63,0,0,0-.63-.63.64.64,0,0,0-.63.63.63.63,0,0,0,.63.62A.63.63,0,0,0,103.71,195.41Zm-.9-1.44a.27.27,0,1,0,.27-.27A.27.27,0,0,0,102.81,194Z" style="fill: rgb(38, 50, 56); transform-origin: 103.077px 194.865px;" id="elilkubhecx4" class="animable"></path><path d="M105,194.87a2,2,0,0,1,.33-1.16,1,1,0,0,1,1.79,0,2.24,2.24,0,0,1,0,2.31,1,1,0,0,1-1.79,0A2,2,0,0,1,105,194.87Zm1.91,0a1.65,1.65,0,0,0-.23-.86.56.56,0,0,0-.45-.3.58.58,0,0,0-.46.3,1.56,1.56,0,0,0-.24.86,1.53,1.53,0,0,0,.24.85.58.58,0,0,0,.46.3.56.56,0,0,0,.45-.3A1.61,1.61,0,0,0,106.93,194.87Z" style="fill: rgb(38, 50, 56); transform-origin: 106.22px 194.865px;" id="ellgl1w8jjyt" class="animable"></path><path d="M108.4,194h0a.82.82,0,0,1,.8-.86.81.81,0,0,1,.8.85h0a.82.82,0,0,1-.81.87A.81.81,0,0,1,108.4,194Zm1.17,0h0c0-.27-.16-.49-.38-.49s-.36.22-.36.48h0c0,.28.16.5.37.5S109.57,194.27,109.57,194Zm-.61,2.26,2.22-3a.17.17,0,0,1,.16-.09.19.19,0,0,1,.2.19.21.21,0,0,1-.05.13l-2.22,3a.2.2,0,0,1-.36-.1A.19.19,0,0,1,109,196.27Zm1.49-.53h0a.8.8,0,1,1,1.59,0h0a.82.82,0,0,1-.8.87A.81.81,0,0,1,110.45,195.74Zm1.16,0h0c0-.27-.15-.49-.37-.49s-.36.22-.36.48h0c0,.28.15.5.37.5S111.61,196,111.61,195.74Z" style="fill: rgb(38, 50, 56); transform-origin: 110.222px 194.87px;" id="el9hf2qi6o3xw" class="animable"></path></g><g id="freepik--Character--inject-28" class="animable" style="transform-origin: 249.975px 263.4px;"><path d="M266.72,90.34c-2.58-4.83-8.42-7.25-14.6-7.53s-13.92.88-16.88,10.12c-2.4,7.5-1.75,15.53-3.88,24s-17.29,26.83-3.61,40.82c12.29,12.57,43.77,11.28,49.27-7.22,4.36-14.66-10.72-32.79-11.22-39.13S269.54,95.64,266.72,90.34Z" style="fill: rgb(38, 50, 56); transform-origin: 249.952px 124.392px;" id="elk1g4mllkmsn" class="animable"></path><path d="M267.31,99.35a32.57,32.57,0,0,0-.48,13.17,12.45,12.45,0,0,0,1.14,3.25c.51,1,1.07,2,1.63,3,1.13,2,2.26,3.9,3.28,5.88A44.05,44.05,0,0,1,277.37,137a32.93,32.93,0,0,1-.19,13,28.1,28.1,0,0,0,1.37-6.44,30.76,30.76,0,0,0-.19-6.64,39,39,0,0,0-4.3-12.75c-1.05-2-2.21-4-3.36-5.91a22.05,22.05,0,0,1-2.86-5.91,27.22,27.22,0,0,1-.78-6.44A51.08,51.08,0,0,1,267.31,99.35Z" style="fill: rgb(38, 50, 56); transform-origin: 272.511px 124.675px;" id="elxe0i1k76cob" class="animable"></path><path d="M234.08,99.44c-1,4.35-1.73,8.74-2.9,13a53.66,53.66,0,0,1-2.14,6.26c-.85,2-2,3.94-3.08,5.92s-2.08,4-3,6.07a37.5,37.5,0,0,0-2.05,6.45,23,23,0,0,0-.31,6.78,16.73,16.73,0,0,0,2.44,6.39,17.57,17.57,0,0,1-1.8-6.43,22.7,22.7,0,0,1,.66-6.52,55,55,0,0,1,5.21-12.18,67,67,0,0,0,3.06-6,42.48,42.48,0,0,0,2-6.46A104.43,104.43,0,0,0,234.08,99.44Z" style="fill: rgb(38, 50, 56); transform-origin: 227.28px 124.875px;" id="el9mwwq3nrdn" class="animable"></path><path d="M316.32,440.65c-2.31.75-68.29-.11-70.78-1.74-1-.6-1.4-10.22-1.59-21.86v-.37c0-2.4-.08-4.87-.08-7.37,0-.35,0-.69,0-1-.1-16.79.17-34.22.17-34.22l44.14.44-1.33,33.91,0,1.34-.27,7,0,.72s25.11,11.62,27.66,13.7S318.64,439.91,316.32,440.65Z" style="fill: rgb(247, 169, 160); transform-origin: 280.614px 407.507px;" id="elwrx6diuitlj" class="animable"></path><path d="M296.5,422c-.18-.05-.27-.1-.28-.15Z" style="fill: rgb(108, 74, 182); transform-origin: 296.36px 421.925px;" id="elcuxggwzoaws" class="animable"></path><path d="M316.32,440.65c-2.31.74-68.29-.11-70.79-1.74-.84-.54-1.29-8.2-1.51-18.07,12.09,2.53,59,12,60.23,8,.5-1.58-3.51-4.3-6-5.84,6.93,3.3,14.6,7.08,16,8.19C316.68,433.26,318.64,439.91,316.32,440.65Z" style="fill: rgb(38, 50, 56); transform-origin: 280.689px 430.88px;" id="elzcj7csqels" class="animable"></path><g id="elxh29xpajrbr"><path d="M274.88,440.54c-14.85-.35-28.25-.91-29.35-1.63-.84-.54-1.29-8.2-1.51-18.07,1.72.36,4.14.86,7,1.44Z" style="opacity: 0.1; transform-origin: 259.45px 430.69px;" class="animable"></path></g><path d="M230.49,184s9.9,111.49,11.52,120c.37,1.94.6,12.48.76,26,.34,29.56.14,82.86.14,82.86h46.51S288,320.51,286,303.51,270.76,184,270.76,184Z" style="fill: rgb(55, 71, 79); transform-origin: 259.955px 298.43px;" id="eldqo3kahlrxk" class="animable"></path><path d="M287.31,404.76c-7.25-.15-5.17-.21-12.43-.28-3.55,0-26.89-.24-30.21.31-.07,0-.07.14,0,.15,3.32.55,26.66.35,30.21.31,7.26-.07,5.18-.13,12.43-.28A.1.1,0,1,0,287.31,404.76Z" style="fill: rgb(38, 50, 56); transform-origin: 266.016px 404.873px;" id="eli3aa0ijral" class="animable"></path><path d="M251.74,352l-.15-20.24c-.05-6.53,0-13.07-.35-19.6-.63-13.21-3.31-26.21-5.22-39.28s-3.49-26.19-4.93-39.33c-1.62-14.73-3.05-29.49-4.56-44.24,0-.09-.17-.09-.16,0,2.19,26.33,4.64,52.65,8.28,78.82q1.36,9.76,3,19.49c1.09,6.57,2.17,13.14,2.69,19.77s.58,13,.65,19.53q.1,10.13.2,20.23c.15,15,.29,38,.44,53a.23.23,0,0,0,.45,0C252,386.75,251.84,365.32,251.74,352Z" style="fill: rgb(38, 50, 56); transform-origin: 244.225px 294.787px;" id="ells4vafbu7oh" class="animable"></path><path d="M220.68,184S240.39,295.47,242,304c.37,1.94.6,12.48.76,26v0L264.94,184Z" style="fill: rgb(38, 50, 56); transform-origin: 242.81px 257px;" id="elk8fmou00ew" class="animable"></path><path d="M198.26,444.24c-2.34-.65-57.07-37.52-58.26-40.24-.47-1,4.44-9.32,10.66-19.16.06-.11.13-.21.19-.31,1.28-2,2.61-4.12,4-6.21.19-.29.37-.58.55-.87,9.13-14.11,18.9-28.54,18.9-28.54L211,373.46,191.27,401.1l-.77,1.1-4.07,5.72-.42.59s14.63,23.48,15.63,26.62S200.6,444.89,198.26,444.24Z" style="fill: rgb(247, 169, 160); transform-origin: 175.484px 396.597px;" id="el74wyz01s0sk" class="animable"></path><path d="M192.78,418.24c-.1-.12-.15-.21-.14-.25Z" style="fill: rgb(108, 74, 182); transform-origin: 192.709px 418.115px;" id="elcseus1vogkc" class="animable"></path><path d="M198.26,444.23c-2.35-.64-57.07-37.51-58.26-40.24-.4-.87,3.12-7.06,8-15,7.62,7.23,44.47,41.93,47.76,39.12.69-.59.4-2.21-.22-4,3,5.05,5.67,9.68,6.07,11C202.62,438.25,200.6,444.88,198.26,444.23Z" style="fill: rgb(38, 50, 56); transform-origin: 170.923px 416.632px;" id="elq7obd0bytih" class="animable"></path><path d="M190.74,408.55,151.06,380s51.33-68.51,51.57-74.78c.35-9.32,4.81-47.77,8.57-78.91,0,0-7.12-16.85,6.2-42.32h53.4s-3.58,24.23-9.71,39.6A71.32,71.32,0,0,0,249.22,229s-4.41,76-5.74,84.55C240,336.16,190.74,408.55,190.74,408.55Z" style="fill: rgb(55, 71, 79); transform-origin: 210.93px 296.27px;" id="elzp5krqcdq2p" class="animable"></path><path d="M193.5,398.9c-5.85-4.29-4.11-3.14-10-7.37-2.89-2.06-21.88-15.62-24.92-17.08-.06,0-.14.07-.08.12,2.4,2.36,21.63,15.59,24.56,17.6,6,4.11,4.31,2.86,10.34,6.9A.1.1,0,0,0,193.5,398.9Z" style="fill: rgb(38, 50, 56); transform-origin: 176.007px 386.763px;" id="elzmnp8sfdrv" class="animable"></path><path d="M263.12,222.49a86.87,86.87,0,0,0-13.9,6.47.15.15,0,1,0,.13.28c4.68-2,9.45-3.93,14-6.2A.3.3,0,0,0,263.12,222.49Z" style="fill: rgb(38, 50, 56); transform-origin: 256.317px 225.866px;" id="el40wpn08m2h4" class="animable"></path><path d="M264.61,190.36c0-.16-.3-.2-.3,0a155.22,155.22,0,0,1-.79,15.65c-.21,2.41-2.15,15.74-6.34,14.77-.7-.17-1.05-.86-1.16-1.91a16.84,16.84,0,0,1,.55-4.09c.47-2.79.84-5.59,1.08-8.41a76.16,76.16,0,0,0-.17-15.76.14.14,0,0,0-.27,0,145.34,145.34,0,0,1-1.27,21.77c-.53,3.46-2.27,8.68,1.35,9.22s6.08-8.2,6.53-10.59A80.09,80.09,0,0,0,264.61,190.36Z" style="fill: rgb(38, 50, 56); transform-origin: 259.999px 205.924px;" id="elw393o4z72is" class="animable"></path><path d="M257.3,221.11a20.39,20.39,0,0,0-.94,2.76,6.14,6.14,0,0,0-.4,2.27.16.16,0,0,0,.29.06,8.14,8.14,0,0,0,1-2.21c.31-.85.65-1.7.94-2.56A.46.46,0,0,0,257.3,221.11Z" style="fill: rgb(38, 50, 56); transform-origin: 257.088px 223.535px;" id="elfo94wk413wv" class="animable"></path><path d="M251.71,134.35c6.38,8.45,23.71,32.79,36.18,32,10.67-.72,32.3-8.07,36.68-10.16,8.15-3.88-4.56-27.08-9.55-25.29-7.95,2.85-18.93,10.62-27.33,11.78-3.43.48-11-6.84-30.09-15C250.2,124.49,247.23,128.42,251.71,134.35Z" style="fill: rgb(247, 169, 160); transform-origin: 288.415px 146.455px;" id="el752ai2tgmg" class="animable"></path><path d="M324,123.66c4.36-.81,9.3-2.1,13.88-1.3s7.45,7.46,7.18,9.2-3.69,12.3-8.29,11.59-.52-8.61-.55-9.59,0-2.23-.89-2.27-17.17,4.78-17.17,4.78Z" style="fill: rgb(247, 169, 160); transform-origin: 331.619px 132.646px;" id="elrab46ypb0m" class="animable"></path><path d="M324.22,124.34c.26,0,13.33-2.89,17.91-2.09s7.45,7.46,7.18,9.2S345.62,143.75,341,143s-.52-8.6-.55-9.58,0-2.23-.89-2.28S322.41,136,322.41,136Z" style="fill: rgb(247, 169, 160); transform-origin: 335.869px 132.574px;" id="el44xiokghjpn" class="animable"></path><path d="M339.55,142.21a5.54,5.54,0,0,1-.34-2.83,9.36,9.36,0,0,1,.63-2.91,16.87,16.87,0,0,0,1-2.44,5.19,5.19,0,0,0-.26-2.53c-.26-.7-1-.59-1.58-.47a22.46,22.46,0,0,0-2.67.74c-.95.3-1.89.62-2.83.93a22.8,22.8,0,0,0-2.9,1.05c-.07,0,0,.15,0,.13a23.46,23.46,0,0,0,2.49-.68l2.82-.8c.88-.23,1.75-.52,2.63-.74a2.79,2.79,0,0,1,1.27-.18c.34.14.38,1,.41,1.32a4.33,4.33,0,0,1-.55,2.46,13.35,13.35,0,0,0-.86,2.44,6.87,6.87,0,0,0-.19,2.43,9.84,9.84,0,0,0,.79,2.14C339.44,142.37,339.6,142.3,339.55,142.21Z" style="fill: rgb(38, 50, 56); transform-origin: 335.732px 136.63px;" id="el3y7am46573t" class="animable"></path><path d="M307.76,134.13s14.55-9.62,17.56-11.51c6-3.8,29.86-9.46,33-9.3s3.3,6.73-12.93,11c-8.56,2.25-10.7,6.62-10.95,9.19s1.45,7.68,5.75,8.23,8-5.26,12.08-5.34.32,6.72-3.11,10.45a26.53,26.53,0,0,1-12.9,7.19c-3.92.81-16.14,4-16.14,4Z" style="fill: rgb(247, 169, 160); transform-origin: 333.871px 135.678px;" id="eladdzg6cp0ri" class="animable"></path><path d="M346,139.57c-1.8,1-3.88,2.33-6,2.08s-3.41-1.9-4.15-3.85a8.23,8.23,0,0,1-.2-6.09,10.13,10.13,0,0,1,3.68-4.34,24.49,24.49,0,0,1,6.4-3c.1,0,0-.18-.07-.15-2.1.57-8.62,2.12-10.68,7.34a8.38,8.38,0,0,0,.25,6.21c.68,1.85,1.81,3.71,3.85,4.2,2.5.6,5-1.12,7.05-2.37C346.2,139.6,346.09,139.52,346,139.57Z" style="fill: rgb(38, 50, 56); transform-origin: 340.327px 133.155px;" id="elqfwi07rl2us" class="animable"></path><path d="M306.7,133.54l10.12,28.39s-22.76,7.25-32.9,5.2S258.34,144,251.57,134.87s-.59-11.42,10.92-5.76S286.36,142,287.41,142,306.7,133.54,306.7,133.54Z" style="fill: rgb(108, 74, 182); transform-origin: 282.79px 146.765px;" id="elcu1lipkg3od" class="animable"></path><path d="M301.74,136.61a31.38,31.38,0,0,0,.92,3.42c.32,1.13.62,2.27,1,3.41q1,3.26,2.09,6.48a134.06,134.06,0,0,0,4.92,12.77.08.08,0,0,0,.15-.06c-1.4-4.41-3-8.75-4.51-13.13-.74-2.15-1.47-4.31-2.2-6.46-.37-1.08-.76-2.15-1.12-3.22a32.72,32.72,0,0,0-1.11-3.25C301.82,136.51,301.74,136.55,301.74,136.61Z" style="fill: rgb(38, 50, 56); transform-origin: 306.283px 149.641px;" id="elvvj1s3muaws" class="animable"></path><path d="M272.66,191.77s-21.11,5-61.1,1.55c0,0,15.63-49.92,28.23-63.37,5.73-6.13,11.33-5.19,16.08-1.25,1.18,1,15.87,19.62,17.11,26.11,1.1,5.74-3.57,12.12-3.57,12.12Z" style="fill: rgb(235, 235, 235); transform-origin: 242.354px 160.041px;" id="elip6uo36z9bm" class="animable"></path><path d="M256.57,147.68a8,8,0,0,1,0,2.18,7.58,7.58,0,0,1-.59-2.1,7.5,7.5,0,0,1,0-2.17A7.49,7.49,0,0,1,256.57,147.68ZM257,181.4a7.5,7.5,0,0,0,0,2.17,7.58,7.58,0,0,0,.59,2.1,8,8,0,0,0,0-2.18A7.49,7.49,0,0,0,257,181.4Zm10.36,6.46a7.57,7.57,0,0,0,0,2.18,7.49,7.49,0,0,0,.58,2.09,7.5,7.5,0,0,0,0-2.17A7.92,7.92,0,0,0,267.31,187.86Zm-33.58-29.57a7.94,7.94,0,0,0,0,2.18,7.49,7.49,0,0,0,.58,2.09,7.16,7.16,0,0,0,0-2.17A7.65,7.65,0,0,0,233.73,158.29ZM268,165.58a7.87,7.87,0,0,0,0,2.17,7.65,7.65,0,0,0,.58,2.1,7.57,7.57,0,0,0,0-2.18A7.87,7.87,0,0,0,268,165.58ZM243.29,152.4a7.87,7.87,0,0,0,2.17,0,7.49,7.49,0,0,0,2.09-.58,8.47,8.47,0,0,0-4.26.61Zm-12.45,21.13a7.94,7.94,0,0,0,2.18,0,7.49,7.49,0,0,0,2.09-.58,7.5,7.5,0,0,0-2.17,0A7.94,7.94,0,0,0,230.84,173.53Zm20.73-1.74a7.87,7.87,0,0,0,2.17,0,7.56,7.56,0,0,0,2.1-.58,7.57,7.57,0,0,0-2.18,0A7.49,7.49,0,0,0,251.57,171.79ZM214,191.2a7.5,7.5,0,0,0,2.17,0,7.92,7.92,0,0,0,2.1-.58,7.58,7.58,0,0,0-2.18,0A7.49,7.49,0,0,0,214,191.2Zm37.46-61a7.5,7.5,0,0,0,2.17,0,7.94,7.94,0,0,0,2.1-.59,7.94,7.94,0,0,0-2.18,0A7.49,7.49,0,0,0,251.43,130.2Zm-7,3.83a7.44,7.44,0,0,0-1.52,1.55,7.84,7.84,0,0,0-1.07,1.9,7.73,7.73,0,0,0,1.52-1.56A8,8,0,0,0,244.39,134Zm-18.85,27a7.73,7.73,0,0,0-1.52,1.56,8,8,0,0,0-1.07,1.89,7.44,7.44,0,0,0,1.52-1.55A7.84,7.84,0,0,0,225.54,161Zm35.92-2.51a8.3,8.3,0,0,0-2.59,3.45,7.48,7.48,0,0,0,1.52-1.56A7.17,7.17,0,0,0,261.46,158.48Zm-17.95,20.1a7.48,7.48,0,0,0-1.52,1.56,7.17,7.17,0,0,0-1.07,1.89,8.48,8.48,0,0,0,2.59-3.45Zm19.85-40.35c-.15.17-.29.34-.43.53a7.49,7.49,0,0,0-1.08,1.89,7.24,7.24,0,0,0,1.52-1.56l.3-.42Zm5.22,15.1a7.64,7.64,0,0,0-1.55-1.51,7.22,7.22,0,0,0-1.9-1.07,8,8,0,0,0,1.56,1.52A7.6,7.6,0,0,0,268.58,153.33Zm-45.69,25.06a7.73,7.73,0,0,0-1.56-1.52,8,8,0,0,0-1.89-1.07,7.44,7.44,0,0,0,1.55,1.52A7.84,7.84,0,0,0,222.89,178.39Zm46.69.79a7.73,7.73,0,0,0-1.56-1.52,7.17,7.17,0,0,0-1.89-1.07,7.69,7.69,0,0,0,1.55,1.52A8,8,0,0,0,269.58,179.18ZM237.33,148a7.48,7.48,0,0,0-1.56-1.52,7.17,7.17,0,0,0-1.89-1.07,7.48,7.48,0,0,0,1.56,1.52A7.77,7.77,0,0,0,237.33,148Zm13.26,44.73a7.48,7.48,0,0,0-1.56-1.52,7.77,7.77,0,0,0-1.89-1.07,8.48,8.48,0,0,0,3.45,2.59Zm-3.94-27.5a8.48,8.48,0,0,0-3.45-2.59,7.48,7.48,0,0,0,1.56,1.52A7.77,7.77,0,0,0,246.65,165.21Zm-15,22.09a7.48,7.48,0,0,0-1.56-1.52,7.17,7.17,0,0,0-1.89-1.07,7.48,7.48,0,0,0,1.56,1.52A7.77,7.77,0,0,0,231.65,187.3Z" style="fill: rgb(199, 199, 199); transform-origin: 241.825px 161.132px;" id="eltj42ixqrpm" class="animable"></path><path d="M243.89,126.7l10,74.46h-46.1s11-47.5,27.77-68.06C240.28,127.36,243.89,126.7,243.89,126.7Z" style="fill: rgb(108, 74, 182); transform-origin: 230.84px 163.93px;" id="eldlraxorzur" class="animable"></path><path d="M256.29,129.14s7.14,18.85,9.84,34.79c3,17.47,4.6,34.81,4.6,34.81l3.17-2.54-4.37-29.26a18.16,18.16,0,0,0,3.62-12.52C272.62,148.44,256.29,129.14,256.29,129.14Z" style="fill: rgb(108, 74, 182); transform-origin: 265.095px 163.94px;" id="elykm1je6v5eb" class="animable"></path><path d="M269.76,147c-.88-1.33-1.79-2.66-2.72-3.94-.16-.46-.34-.9-.51-1.35a16.76,16.76,0,0,0-1-1.89,15.66,15.66,0,0,0,.7,2q.14.27.24.54-1.39-1.9-2.9-3.74c1.84,2.94,3.84,5.77,5.69,8.69a38.82,38.82,0,0,1,2.58,4.46,14.48,14.48,0,0,1,.63,1.53,12.43,12.43,0,0,1-.38,8.1,26.54,26.54,0,0,1-1.55,4.06.09.09,0,0,0,.15.08,38.72,38.72,0,0,0,1.86-4.1,13.74,13.74,0,0,0,.89-4.29C273.73,153,271.62,150.18,269.76,147Z" style="fill: rgb(38, 50, 56); transform-origin: 268.518px 152.092px;" id="elmqknz2l5d09" class="animable"></path><path d="M244.27,127.32c.24,1.08,5.3,8.12,10.22,8,1.6-.06,1.67-8.83,1.67-8.83l.15-.65,2.13-9-10.58-7-1.53-.93s-.41,2.52-.91,5.65c0,.15,0,.29-.07.45s-.06.34-.08.51c-.08.46-.16.94-.23,1.42s-.11.72-.15,1.1-.1.75-.15,1.14A58.3,58.3,0,0,0,244.27,127.32Z" style="fill: rgb(247, 169, 160); transform-origin: 251.353px 122.116px;" id="el12zw2gr9oyeb" class="animable"></path><path d="M245.42,114.52a18.62,18.62,0,0,0,10.89,11.27l2.13-9-10.58-7-1.53-.93S245.92,111.39,245.42,114.52Z" style="fill: rgb(38, 50, 56); transform-origin: 251.93px 117.325px;" id="elcj43szxvwtt" class="animable"></path><path d="M270.61,100.08c3.25,16-5.95,19.73-9.4,20.43-3.13.63-13.86,2.39-18.75-13.17s1.52-22.12,8.6-24S267.36,84.1,270.61,100.08Z" style="fill: rgb(247, 169, 160); transform-origin: 256.019px 101.861px;" id="el4sq0yz2g06x" class="animable"></path><path d="M267.8,97.78c-.39,0-.75,0-1.13,0a1.81,1.81,0,0,1-1.14-.26.55.55,0,0,1-.12-.69,1.42,1.42,0,0,1,1.33-.59,2.14,2.14,0,0,1,1.44.5A.62.62,0,0,1,267.8,97.78Z" style="fill: rgb(38, 50, 56); transform-origin: 266.843px 97.0098px;" id="el8qg0vy0j8gp" class="animable"></path><path d="M256.79,99.73c.37-.11.69-.28,1-.42a1.82,1.82,0,0,0,1-.64.58.58,0,0,0-.13-.7,1.44,1.44,0,0,0-1.45-.08,2.12,2.12,0,0,0-1.17,1A.62.62,0,0,0,256.79,99.73Z" style="fill: rgb(38, 50, 56); transform-origin: 257.422px 98.7444px;" id="elogi1sjkyrxd" class="animable"></path><path d="M260,103.21s-.07.07-.06.11c.25,1.08.37,2.36-.54,2.93,0,0,0,.07,0,.06C260.62,105.89,260.46,104.19,260,103.21Z" style="fill: rgb(38, 50, 56); transform-origin: 259.871px 104.76px;" id="elzugxloqklel" class="animable"></path><path d="M258.84,102.27c-1.78.23-1.2,3.77.45,3.56S260.33,102.08,258.84,102.27Z" style="fill: rgb(38, 50, 56); transform-origin: 259.013px 104.051px;" id="el8gt3mtjbswt" class="animable"></path><path d="M258.17,102.57c-.27.25-.52.66-.88.76s-.81-.21-1.15-.52c0,0-.06,0-.06,0,.1.68.48,1.33,1.22,1.32s1.06-.7,1.11-1.41C258.42,102.64,258.28,102.47,258.17,102.57Z" style="fill: rgb(38, 50, 56); transform-origin: 257.245px 103.335px;" id="elkpfuw8lqo9q" class="animable"></path><path d="M266.09,102s.1,0,.1.08c.14,1.1.48,2.34,1.53,2.55a0,0,0,0,1,0,.07C266.48,104.69,266.05,103,266.09,102Z" style="fill: rgb(38, 50, 56); transform-origin: 266.904px 103.35px;" id="eli3xxeek1lxf" class="animable"></path><path d="M266.89,100.68c1.75-.41,2.44,3.11.82,3.49S265.43,101,266.89,100.68Z" style="fill: rgb(38, 50, 56); transform-origin: 267.353px 102.423px;" id="eleux0ecypulh" class="animable"></path><path d="M267.67,100.77c.32.13.66.41,1,.37s.6-.49.78-.9c0,0,.05,0,.06,0,.15.67.07,1.41-.55,1.67s-1.12-.26-1.41-.9C267.49,100.92,267.55,100.71,267.67,100.77Z" style="fill: rgb(38, 50, 56); transform-origin: 268.551px 101.109px;" id="el1q394z9kw96" class="animable"></path><path d="M261.39,112.22c.3.23.6.56,1,.54a3.06,3.06,0,0,0,1.15-.41,0,0,0,0,1,.05.05,1.49,1.49,0,0,1-1.33.76,1.2,1.2,0,0,1-1-.87A.06.06,0,0,1,261.39,112.22Z" style="fill: rgb(38, 50, 56); transform-origin: 262.421px 112.671px;" id="elws0s6j594cf" class="animable"></path><path d="M265.31,109.69a4.53,4.53,0,0,1-1.43,1.8,2.11,2.11,0,0,1-1.19.36c-.92,0-1.14-.81-1.14-1.53a4.8,4.8,0,0,1,.13-1.14A5.87,5.87,0,0,0,265.31,109.69Z" style="fill: rgb(38, 50, 56); transform-origin: 263.43px 110.515px;" id="eloq5mtpii0x" class="animable"></path><path d="M263.88,111.49a2.11,2.11,0,0,1-1.19.36c-.92,0-1.14-.81-1.14-1.53A2.11,2.11,0,0,1,263.88,111.49Z" style="fill: rgb(255, 156, 189); transform-origin: 262.715px 111.064px;" id="elf12lc1x0ln4" class="animable"></path><path d="M265.27,107.47s.51,1.59.65,2.36c0,.07-.17.14-.43.2h0a3.74,3.74,0,0,1-3.8-.74.08.08,0,0,1,.1-.13,5.59,5.59,0,0,0,3.51.37c0-.23-1-2.7-.85-2.73a7.13,7.13,0,0,1,1.82.08c-1-3.35-2.48-6.51-3.4-9.86,0-.12.14-.19.19-.09a56.36,56.36,0,0,1,4.12,10.47C267.29,107.84,265.6,107.54,265.27,107.47Z" style="fill: rgb(38, 50, 56); transform-origin: 264.422px 103.571px;" id="eldioawyuh4j6" class="animable"></path><path d="M260,86.06a7.19,7.19,0,0,1-.19,4.19c-1.72,3.61-6.07,2.67-7.55,4.1s-.9,4.11-2.15,5.45c-1.75,1.86-4.12,1.14-4.41,2.39s-1.1,5.22-2.69,5.73S234,82.05,254.79,82.83c0,0,2.85-1.17,7.28,1,4.88,2.45,7,10.47,7,10.47s-.11-.11-.82-.74c-1-.88-1.39-1.69-2.13-2.26-1.16-.9-1.79-.56-3-1.43A13.62,13.62,0,0,1,260,86.06Z" style="fill: rgb(38, 50, 56); transform-origin: 254.747px 95.2212px;" id="elnjkgumi8iy" class="animable"></path><path d="M259.63,84.92a13.77,13.77,0,0,1,.61,3.17,5.86,5.86,0,0,1-.43,3.09A4.4,4.4,0,0,1,257.43,93c-1,.37-2.08.47-3.14.9a3.16,3.16,0,0,0-1.39,1,4.37,4.37,0,0,0-.61,1.6,5.81,5.81,0,0,1-1.14,2.87,3.57,3.57,0,0,1-2.79,1.18c-1,0-2.2-.29-3.22.18,1.05-.38,2.12,0,3.22.07a3.91,3.91,0,0,0,3.07-1.15,5.88,5.88,0,0,0,1.32-3,3.8,3.8,0,0,1,.55-1.42,2.78,2.78,0,0,1,1.19-.86c.95-.4,2.05-.53,3.1-.93a5.81,5.81,0,0,0,1.48-.82,3.31,3.31,0,0,0,1.09-1.31,6,6,0,0,0,.33-3.29A14,14,0,0,0,259.63,84.92Z" style="fill: rgb(38, 50, 56); transform-origin: 252.863px 92.8654px;" id="elo4v3q7t6lvj" class="animable"></path><path d="M260,85.86a11.33,11.33,0,0,0,1,2.86A5.42,5.42,0,0,0,263.13,91a8,8,0,0,0,1.44.55,2.53,2.53,0,0,1,1.12.75,7.73,7.73,0,0,0,.91,1.22,3.4,3.4,0,0,0,1.32.77,3.88,3.88,0,0,1-1.14-.94,7.49,7.49,0,0,1-.76-1.27,2.61,2.61,0,0,0-1.28-1,8,8,0,0,1-1.36-.55,5.62,5.62,0,0,1-2-2A22.22,22.22,0,0,1,260,85.86Z" style="fill: rgb(38, 50, 56); transform-origin: 263.96px 90.075px;" id="elecv1lg6mj28" class="animable"></path><path d="M243.63,113.23a2.82,2.82,0,0,0,.78.11,2.32,2.32,0,0,0,.76-.07,2.19,2.19,0,0,0,.9-.4,2.66,2.66,0,0,0,.56-.55,3.07,3.07,0,0,0,.51-1l-1.39-4.22s-4.12-4.65-6.27-3.13S240.82,112.54,243.63,113.23Z" style="fill: rgb(247, 169, 160); transform-origin: 242.976px 108.505px;" id="ely4qj4n6nvmi" class="animable"></path><path d="M240.53,106s0,.06,0,.07c2,.55,3.18,2.19,4.08,3.92a1.52,1.52,0,0,0-2.31-.15s0,.11.06.1a1.7,1.7,0,0,1,1.93.37,8.58,8.58,0,0,1,1.06,1.4c.1.16.4,0,.31-.15l0-.05C245.4,109.08,243.14,105.92,240.53,106Z" style="fill: rgb(38, 50, 56); transform-origin: 243.103px 108.888px;" id="el9f65jk16n5w" class="animable"></path><path d="M243.78,112.53a.76.76,0,1,0,.49-1A.75.75,0,0,0,243.78,112.53Z" style="fill: rgb(255, 255, 255); transform-origin: 244.488px 112.258px;" id="elyjagbqoudab" class="animable"></path><path d="M242.11,111.57a.53.53,0,1,0,1-.33.53.53,0,1,0-1,.33Z" style="fill: rgb(255, 255, 255); transform-origin: 242.61px 111.405px;" id="elqh2o6d1ynz" class="animable"></path><path d="M236.07,134.55c-8.81,15.2-24.9,50.64-17.43,57.22,12.27,10.81,39.71,18,48.14,19.36,3.64.57,12.58-26.6,9-28.24-4.3-2-33.43-7.43-33.62-9.84-.1-1.36,1.55-13.08,2.33-28C245.39,127.8,240.26,127.3,236.07,134.55Z" style="fill: rgb(247, 169, 160); transform-origin: 246.663px 170.637px;" id="elrougtu9l9v9" class="animable"></path><path d="M262.8,182.86s10.22-4.59,17.05-7.28c3.81-1.49,10.58-3.48,13.88-3.3,4.94.27,25.43,4.55,24.5,9.54-.84,4.52-18-1.39-18-1.39s17.82,4.43,15.8,9.69-20.48-4-20.48-4,18.2,5,15.27,10.06c-2.22,3.85-19.42-3.59-19.42-3.59S307,197,304.92,201c-2.33,4.48-18.64-1.39-18.64-1.39-7.1,9.39-14.32,11-19.59,11.47C265.41,211.21,262.8,182.86,262.8,182.86Z" style="fill: rgb(247, 169, 160); transform-origin: 290.53px 191.675px;" id="elcffan0hp70u" class="animable"></path><path d="M294.19,178.5c2.11.44,4.25.88,6.31,1.51s4.11,1.34,6.11,2.16a37.18,37.18,0,0,1,7.47,3.93c-4.35-2.52-11.7-4.9-13.77-5.53s-4.09-1.36-6.15-2C294.11,178.56,294.13,178.48,294.19,178.5Z" style="fill: rgb(38, 50, 56); transform-origin: 304.106px 182.298px;" id="elywao8qqv5s" class="animable"></path><path d="M291.77,185.91c2.67.69,5.35,1.27,8,2.07s5.06,1.79,7.62,2.77c.2.08.1.16-.11.09-2.6-.87-5.08-1.48-7.69-2.33s-5.2-1.79-7.83-2.54C291.71,186,291.73,185.9,291.77,185.91Z" style="fill: rgb(38, 50, 56); transform-origin: 299.614px 188.388px;" id="eli6ctx0n4eyn" class="animable"></path><path d="M288.55,191.9a61.43,61.43,0,0,1,12,4.11c.19.08,0,.17-.16.1-3.95-1.44-7.05-2.6-11.85-4.06C288.44,192,288.46,191.88,288.55,191.9Z" style="fill: rgb(38, 50, 56); transform-origin: 294.551px 194.016px;" id="elx577ndthqy" class="animable"></path><path d="M265.56,179.18l-4.27,32.51S219.63,199.12,216.71,190s7.62-36.17,17.26-53,11.31-.78,11.2,5.65-2.23,28.86-2.23,28.86Z" style="fill: rgb(108, 74, 182); transform-origin: 240.887px 170.62px;" id="el3jj7pkaoh9q" class="animable"></path><path d="M260.52,179.74a28.81,28.81,0,0,0-.81,3.45c-.26,1.15-.54,2.29-.77,3.45q-.69,3.35-1.24,6.7A135.07,135.07,0,0,0,256,206.92c0,.09.14.11.16,0,.86-4.55,1.49-9.14,2.24-13.7.37-2.25.76-4.49,1.13-6.73.19-1.13.35-2.25.54-3.38s.49-2.25.57-3.38C260.63,179.68,260.54,179.69,260.52,179.74Z" style="fill: rgb(38, 50, 56); transform-origin: 258.32px 193.346px;" id="el057nly8m4i1" class="animable"></path><path d="M256.4,176c-2.39-.67-13.25-4.74-13.25-4.75.72-5.2,1-10.46,1.36-15.69.13-.56.25-1.11.36-1.66.2-1,.34-1.94.54-2.9,0,0,0,0,0,0-.24,1-.54,1.89-.74,2.84v0c.09-1.66.18-3.33.25-5,0-.08-.13-.09-.14,0-.9,7.42-2.21,22.6-2,22.7,2.18,1,11.26,3.72,13.58,4.49C256.41,176.11,256.5,176.05,256.4,176Z" style="fill: rgb(38, 50, 56); transform-origin: 249.601px 162.423px;" id="elai4pdzynbcv" class="animable"></path><path d="M232.36,201.06a27.08,27.08,0,0,1-2.75-1.49c-.91-.52-1.8-1.07-2.68-1.63a61.28,61.28,0,0,1-5.32-3.74c-1.62-1.28-3.21-2.61-4-4.6a15.93,15.93,0,0,1-.68-6.4,56.41,56.41,0,0,1,2.87-13.14c1.28-4.2,2.71-8.35,4.36-12.41.92-2.25,1.87-4.48,2.88-6.68s2.21-4.4,3.26-6.63a.1.1,0,0,0-.17-.09,67.61,67.61,0,0,0-3.26,6l-1,1.94c0-.11.08-.22.11-.33l.75-2.42c0-.09-.12-.12-.15,0-.43,1.28-.86,2.56-1.27,3.85,0,.05-.09.21-.15.39-.43.91-.86,1.81-1.26,2.73a132.54,132.54,0,0,0-4.78,12.48,61,61,0,0,0-3.15,13.43,19.59,19.59,0,0,0,.37,6.61,9.19,9.19,0,0,0,3.33,4.91,51.12,51.12,0,0,0,5.81,4.1c1.05.64,2.14,1.22,3.24,1.77s2.34,1,3.49,1.55C232.38,201.24,232.45,201.1,232.36,201.06Z" style="fill: rgb(38, 50, 56); transform-origin: 224.121px 172.74px;" id="elfrov9857nsv" class="animable"></path><path d="M256.25,126.07l-2.35,7.46-9.71-8.47-2.32,3.13s9.92,13.89,9.92,13.23L254.3,135l4.64,4-1.18-10.88Z" style="fill: rgb(235, 235, 235); transform-origin: 250.405px 133.251px;" id="el986luwa12xb" class="animable"></path><path d="M258.66,133.55c-.26-1.79-.46-3.6-.8-5.38,0-.06-.12-.08-.13,0-.22,1.76.79,8.6.91,10.25l0,0c-.19-.17-4.29-3.51-4.32-3.45-.57,1-2.41,5.75-2.53,6.18-1.57-2.21-7.55-10.21-9.37-12.27-.05-.06-.15,0-.1.07,1.41,2.35,9.35,13.13,9.45,13.09a72,72,0,0,0,2.62-6.84c.7.74,4.87,4.55,4.86,4.28A55.74,55.74,0,0,0,258.66,133.55Z" style="fill: rgb(38, 50, 56); transform-origin: 250.778px 135.079px;" id="el5hfvtmvpq07" class="animable"></path></g><g id="freepik--window-3--inject-28" class="animable" style="transform-origin: 156.72px 315.205px;"><g id="elnwn1ky70c3b"><g style="opacity: 0.5; transform-origin: 156.72px 318.81px;" class="animable"><rect x="55.58" y="266.03" width="202.38" height="105.7" style="fill: rgb(108, 74, 182); transform-origin: 156.77px 318.88px;" id="eluuv08tjyon" class="animable"></rect><path d="M258,371.73,55.58,372h-.26v-.27L55.21,266v-.38h.37l202.38.11h.27V266L258.14,319Zm0,0L257.69,266l.27.27-202.38.1L56,266l-.11,105.7-.27-.26Z" style="fill: rgb(235, 235, 235); transform-origin: 156.72px 318.81px;" id="el1t9j3i7ycz6" class="animable"></path></g></g><rect x="55.58" y="258.41" width="202.38" height="7.62" style="fill: rgb(69, 90, 100); transform-origin: 156.77px 262.22px;" id="elob2asvi4pdc" class="animable"></rect><path d="M61.64,262.22a1.89,1.89,0,1,1-1.89-1.89A1.89,1.89,0,0,1,61.64,262.22Z" style="fill: rgb(199, 199, 199); transform-origin: 59.75px 262.22px;" id="eltvefu2fp8ro" class="animable"></path><path d="M69.35,262.22a1.89,1.89,0,1,1-1.89-1.89A1.89,1.89,0,0,1,69.35,262.22Z" style="fill: rgb(255, 255, 255); transform-origin: 67.46px 262.22px;" id="elzat8a9398mr" class="animable"></path><path d="M77.06,262.22a1.89,1.89,0,1,1-1.89-1.89A1.89,1.89,0,0,1,77.06,262.22Z" style="fill: rgb(108, 74, 182); transform-origin: 75.17px 262.22px;" id="elyr35pwf6c0l" class="animable"></path><path d="M71.15,288c28.91-.15,56.38-.11,85.3-.17s57.17,0,86.09.17c-28.92.14-57.17.1-86.09.16S100.06,288.11,71.15,288Z" style="fill: rgb(255, 255, 255); transform-origin: 156.845px 287.992px;" id="el5hnk5fh8ror" class="animable"></path><path d="M71.15,301.6c28.91-.14,56.38-.1,85.3-.16s57.17,0,86.09.16c-28.92.15-57.17.11-86.09.17S100.06,301.75,71.15,301.6Z" style="fill: rgb(255, 255, 255); transform-origin: 156.845px 301.604px;" id="eldz3mjbjj4zs" class="animable"></path><path d="M71.15,315.24c28.91-.14,56.38-.11,85.3-.17s57.17,0,86.09.17c-28.92.14-57.17.11-86.09.17S100.06,315.38,71.15,315.24Z" style="fill: rgb(255, 255, 255); transform-origin: 156.845px 315.238px;" id="elozfepm26gan" class="animable"></path><path d="M71.15,328.88c28.91-.15,56.38-.11,85.3-.17s57.17,0,86.09.17c-28.92.14-57.17.1-86.09.16S100.06,329,71.15,328.88Z" style="fill: rgb(255, 255, 255); transform-origin: 156.845px 328.873px;" id="elhb9f66xzccj" class="animable"></path><path d="M71.15,342.51c28.91-.14,56.38-.11,85.3-.17s57.17,0,86.09.17c-28.92.14-57.17.11-86.09.17S100.06,342.65,71.15,342.51Z" style="fill: rgb(255, 255, 255); transform-origin: 156.845px 342.508px;" id="el7ygjijn75pa" class="animable"></path><path d="M87.58,279.1c.15,12.74.11,25.48.17,38.22s0,25.49-.17,38.23c-.14-12.74-.1-25.48-.16-38.23S87.44,291.84,87.58,279.1Z" style="fill: rgb(255, 255, 255); transform-origin: 87.5863px 317.325px;" id="elghpxi0tk28q" class="animable"></path><path d="M102.4,279.1c.14,12.74.11,25.48.17,38.22s0,25.49-.17,38.23c-.14-12.74-.11-25.48-.17-38.23S102.26,291.84,102.4,279.1Z" style="fill: rgb(255, 255, 255); transform-origin: 102.402px 317.325px;" id="elsk5plds0k1h" class="animable"></path><path d="M117.21,279.1c.15,12.74.11,25.48.17,38.22s0,25.49-.17,38.23c-.14-12.74-.1-25.48-.16-38.23S117.07,291.84,117.21,279.1Z" style="fill: rgb(255, 255, 255); transform-origin: 117.216px 317.325px;" id="elbjvkhf1t4wb" class="animable"></path><path d="M132,279.1c.14,12.74.11,25.48.17,38.22s0,25.49-.17,38.23c-.14-12.74-.11-25.48-.17-38.23S131.89,291.84,132,279.1Z" style="fill: rgb(255, 255, 255); transform-origin: 132.003px 317.325px;" id="el58wmh5we9k" class="animable"></path><path d="M146.84,279.1c.15,12.74.11,25.48.17,38.22s0,25.49-.17,38.23c-.14-12.74-.1-25.48-.16-38.23S146.7,291.84,146.84,279.1Z" style="fill: rgb(255, 255, 255); transform-origin: 146.846px 317.325px;" id="eljy0qqw2b04" class="animable"></path><path d="M161.66,279.1c.14,12.74.11,25.48.17,38.22s0,25.49-.17,38.23c-.14-12.74-.11-25.48-.17-38.23S161.52,291.84,161.66,279.1Z" style="fill: rgb(255, 255, 255); transform-origin: 161.662px 317.325px;" id="el3yc7025qprn" class="animable"></path><path d="M176.47,279.1c.15,12.74.11,25.48.17,38.22s0,25.49-.17,38.23c-.14-12.74-.1-25.48-.16-38.23S176.33,291.84,176.47,279.1Z" style="fill: rgb(255, 255, 255); transform-origin: 176.476px 317.325px;" id="elp8ud3xd6jg" class="animable"></path><path d="M191.29,279.1c.14,12.74.11,25.48.17,38.22s0,25.49-.17,38.23c-.14-12.74-.11-25.48-.17-38.23S191.15,291.84,191.29,279.1Z" style="fill: rgb(255, 255, 255); transform-origin: 191.292px 317.325px;" id="elef2lhzgm8ff" class="animable"></path><path d="M206.1,279.1c.15,12.74.11,25.48.17,38.22s0,25.49-.17,38.23c-.14-12.74-.1-25.48-.16-38.23S206,291.84,206.1,279.1Z" style="fill: rgb(255, 255, 255); transform-origin: 206.108px 317.325px;" id="elzow16wiibb7" class="animable"></path><path d="M220.92,279.1c.14,12.74.11,25.48.17,38.22s0,25.49-.17,38.23c-.14-12.74-.11-25.48-.17-38.23S220.78,291.84,220.92,279.1Z" style="fill: rgb(255, 255, 255); transform-origin: 220.922px 317.325px;" id="elj7w3ruejaz" class="animable"></path><path d="M235.73,279.1c.15,12.74.11,25.48.17,38.22s0,25.49-.17,38.23c-.14-12.74-.1-25.48-.16-38.23S235.59,291.84,235.73,279.1Z" style="fill: rgb(255, 255, 255); transform-origin: 235.736px 317.325px;" id="el50sgqg71vpq" class="animable"></path><path d="M70.9,279.93c.19,12.6.35,25.21.37,37.81l.18,37.81-.55-.31,84.56.08,42.29.06,45.45.17-45.45.17-42.29.06-84.56.08h-.56v-.31l.18-37.81C70.54,305.14,70.7,292.53,70.9,279.93Z" style="fill: rgb(255, 255, 255); transform-origin: 156.77px 317.895px;" id="ely1ler7zlhns" class="animable"></path><g id="el5go8h536geg"><g style="opacity: 0.62; transform-origin: 153.4px 325.365px;" class="animable"><path d="M71.15,355.55s8-33.17,16-33.17c6.79,0,9.65,9.78,15.16,9.78,7.27,0,8.28-25.32,15.3-25.32s8.52,9.9,14.53,9.9,8.68-11.65,14.92-11.65,7.76,17.17,14.41,17.17,6.77-27.08,14.91-27.08,10.28,11.66,15,11.66,7.52-8.52,14.54-8.52c13.28,0,29.73,57.23,29.73,57.23Z" style="fill: rgb(108, 74, 182); transform-origin: 153.4px 325.365px;" id="els3fp9cpno6" class="animable"></path></g></g><g id="el24mi6vunsjx"><g style="opacity: 0.62; transform-origin: 153.57px 332.99px;" class="animable"><path d="M71.15,355.55s8.56-30.74,16.17-30.74,8.4,8.45,14.8,8.45,6.49-14.83,15.09-14.83c5.93,0,8,6,14.56,6,9,0,7.65-14,15-14,9.4,0,5.6,19.25,15.4,19.25,6.2,0,7.85-8.63,15.25-8.63,4.9,0,7,6.21,13.44,6.21s7.81-12.39,15.81-12.39c13.11,0,29.32,40.64,29.32,40.64Z" style="fill: rgb(108, 74, 182); transform-origin: 153.57px 332.99px;" id="el74n04r6jjnk" class="animable"></path></g></g><g id="elj4h0azs82r"><path d="M71.15,355.55s7.72-11.29,16.43-11.29c6.54,0,7.71,3,14.9,3,4.51,0,6.24-11.87,14.9-11.87s8.83,7,14.76,7,7.6-6.6,14.87-6.6,8.15,3.63,14.65,3.63c7.41,0,7.18-14.7,14.81-14.7s7.92,12.23,15,12.23c5,0,6.89-5.24,14.48-5.24,10.59,0,30.05,23.87,30.05,23.87Z" style="fill: rgb(108, 74, 182); opacity: 0.62; transform-origin: 153.575px 340.15px;" class="animable"></path></g></g><g id="freepik--window-2--inject-28" class="animable" style="transform-origin: 363.445px 123.33px;"><g id="el7g0d9ccp9jp"><g style="opacity: 0.5; transform-origin: 363.445px 127.58px;" class="animable"><rect x="286" y="66.23" width="155" height="122.74" style="fill: rgb(108, 74, 182); transform-origin: 363.5px 127.6px;" id="els2kj2j51k1" class="animable"></rect><path d="M441,189l-155,.27h-.27V189l-.11-122.74v-.37H286L441,66h.27v.27Zm0,0-.27-122.74.27.27-155,.11.37-.38L286.26,189l-.26-.26Z" style="fill: rgb(235, 235, 235); transform-origin: 363.445px 127.58px;" id="elzqkw1hjpg2" class="animable"></path></g></g><rect x="286" y="57.39" width="155" height="8.84" style="fill: rgb(69, 90, 100); transform-origin: 363.5px 61.81px;" id="elhdrfy2aboxp" class="animable"></rect><path d="M293,61.81a2.2,2.2,0,1,1-2.2-2.19A2.21,2.21,0,0,1,293,61.81Z" style="fill: rgb(199, 199, 199); transform-origin: 290.8px 61.82px;" id="elm1n2pgvfcgk" class="animable"></path><path d="M302,61.81a2.19,2.19,0,1,1-2.19-2.19A2.2,2.2,0,0,1,302,61.81Z" style="fill: rgb(255, 255, 255); transform-origin: 299.81px 61.81px;" id="elx1p1tl5abwb" class="animable"></path><path d="M310.94,61.81a2.2,2.2,0,1,1-2.2-2.19A2.2,2.2,0,0,1,310.94,61.81Z" style="fill: rgb(108, 74, 182); transform-origin: 308.74px 61.82px;" id="elp4fme2px43" class="animable"></path><rect x="353.52" y="132.93" width="40.01" height="0.26" style="fill: rgb(38, 50, 56); transform-origin: 373.525px 133.06px;" id="eltshfdzp2nb" class="animable"></rect><circle cx="392.29" cy="133.05" r="1.53" style="fill: rgb(38, 50, 56); transform-origin: 392.29px 133.05px;" id="eli8ztiuv5cbh" class="animable"></circle><path d="M401.52,132l-1.19,2.8a.25.25,0,0,1-.24.16l-.1,0a.27.27,0,0,1-.14-.34l1-2.43h-1.22a.27.27,0,0,1-.26-.27.26.26,0,0,1,.26-.26h1.67l.1,0,0,0v0s0,0,0,0h0v0l0,0v0s0,0,0,0v.1A.43.43,0,0,1,401.52,132Z" style="fill: rgb(38, 50, 56); transform-origin: 400.445px 133.31px;" id="eli7jksin5bxi" class="animable"></path><path d="M403.81,133a1.16,1.16,0,0,1,.34.83,1.21,1.21,0,0,1-.34.83,1.18,1.18,0,0,1-.83.35h0a1.18,1.18,0,0,1-.83-.35.27.27,0,0,1,.38-.38.64.64,0,0,0,.91,0,.65.65,0,0,0,.19-.45.6.6,0,0,0-.19-.45.63.63,0,0,0-.45-.19.65.65,0,0,0-.46.19.28.28,0,0,1-.38,0,.15.15,0,0,0-.05-.06v0s0,0,0,0h0a.11.11,0,0,1,0-.08l.14-1.22a.28.28,0,0,1,.12-.19h0a0,0,0,0,1,0,0,.28.28,0,0,1,.13,0h1.39a.27.27,0,0,1,.27.27.28.28,0,0,1-.27.27h-1.16l-.06.46a1.65,1.65,0,0,1,.32,0A1.18,1.18,0,0,1,403.81,133Z" style="fill: rgb(38, 50, 56); transform-origin: 403.119px 133.416px;" id="el2wmpra23na3" class="animable"></path><path d="M404.88,132.46h0a.81.81,0,0,1,.79-.85.79.79,0,0,1,.77.84h0a.78.78,0,1,1-1.56,0Zm1.14,0h0c0-.26-.15-.48-.36-.48s-.36.22-.36.47h0c0,.27.15.48.37.48S406,132.72,406,132.46Zm-.59,2.21,2.17-3a.18.18,0,0,1,.16-.08.19.19,0,0,1,.19.18.21.21,0,0,1,0,.12l-2.18,3a.18.18,0,0,1-.16.09.18.18,0,0,1-.14-.31Zm1.45-.51h0a.79.79,0,1,1,1.57,0h0a.79.79,0,1,1-1.57,0Zm1.15,0h0c0-.27-.16-.49-.37-.49s-.35.22-.35.48h0c0,.27.15.48.36.48S408,134.41,408,134.16Z" style="fill: rgb(38, 50, 56); transform-origin: 406.667px 133.314px;" id="elkzf6med0rxg" class="animable"></path><rect x="399.35" y="137.51" width="17.03" height="0.41" style="fill: rgb(38, 50, 56); transform-origin: 407.865px 137.715px;" id="elgpydvz7h1xj" class="animable"></rect><rect x="399.35" y="138.62" width="17.03" height="0.41" style="fill: rgb(38, 50, 56); transform-origin: 407.865px 138.825px;" id="eluf5knyeso4k" class="animable"></rect><rect x="399.35" y="139.73" width="17.03" height="0.41" style="fill: rgb(38, 50, 56); transform-origin: 407.865px 139.935px;" id="el5txjdab207h" class="animable"></rect><rect x="399.35" y="140.84" width="17.03" height="0.41" style="fill: rgb(38, 50, 56); transform-origin: 407.865px 141.045px;" id="el01s0dyhzhhxm" class="animable"></rect><rect x="399.35" y="141.95" width="17.03" height="0.41" style="fill: rgb(38, 50, 56); transform-origin: 407.865px 142.155px;" id="el7x6qa28x3wv" class="animable"></rect><rect x="399.35" y="143.06" width="17.03" height="0.41" style="fill: rgb(38, 50, 56); transform-origin: 407.865px 143.265px;" id="el3xdf2r9208b" class="animable"></rect><rect x="399.35" y="144.17" width="17.03" height="0.41" style="fill: rgb(38, 50, 56); transform-origin: 407.865px 144.375px;" id="el6xu2t12vy8e" class="animable"></rect><polygon points="393.53 157.92 378.73 157.92 378.69 157.88 353.5 133.15 353.69 132.97 378.84 157.65 393.53 157.65 393.53 157.92" style="fill: rgb(38, 50, 56); transform-origin: 373.515px 145.445px;" id="elnm97cpshuys" class="animable"></polygon><path d="M393.83,157.79a1.54,1.54,0,1,1-1.54-1.54A1.54,1.54,0,0,1,393.83,157.79Z" style="fill: rgb(69, 90, 100); transform-origin: 392.29px 157.79px;" id="elb379oz9qku" class="animable"></path><path d="M401.61,158.56a1.13,1.13,0,0,1-2.26,0,1.15,1.15,0,0,1,.5-.94.73.73,0,0,1-.15-.47.78.78,0,0,1,1.56,0,.74.74,0,0,1-.16.47A1.13,1.13,0,0,1,401.61,158.56Zm-.52,0a.61.61,0,0,0-.61-.61.62.62,0,1,0,0,1.23A.61.61,0,0,0,401.09,158.56Zm-.88-1.41a.27.27,0,0,0,.27.27.27.27,0,0,0,0-.53A.27.27,0,0,0,400.21,157.15Z" style="fill: rgb(38, 50, 56); transform-origin: 400.48px 158.03px;" id="eldknj6prfi9r" class="animable"></path><path d="M404.13,157.68a1.19,1.19,0,0,1,.34.84,1.16,1.16,0,0,1-1.17,1.17h0a1.14,1.14,0,0,1-.82-.34.27.27,0,0,1,.38-.38.6.6,0,0,0,.45.19.61.61,0,0,0,.45-.19.65.65,0,0,0,.19-.45.63.63,0,0,0-.19-.46.63.63,0,0,0-.45-.18.64.64,0,0,0-.45.18.26.26,0,0,1-.38,0l-.05-.06h0s0,0,0,0v0a0,0,0,0,1,0,0v-.08l.14-1.23a.35.35,0,0,1,.12-.19h0a.21.21,0,0,1,.12,0h1.39a.27.27,0,1,1,0,.53H403l-.06.47a1.22,1.22,0,0,1,.32,0A1.16,1.16,0,0,1,404.13,157.68Z" style="fill: rgb(38, 50, 56); transform-origin: 403.47px 158.091px;" id="elej8vk2h3c5w" class="animable"></path><path d="M405.2,157.2h0a.8.8,0,0,1,.79-.85.79.79,0,0,1,.78.84h0a.79.79,0,1,1-1.57,0Zm1.14,0h0c0-.27-.15-.49-.36-.49s-.35.22-.35.48h0c0,.27.15.48.36.48S406.34,157.45,406.34,157.2Zm-.59,2.21,2.17-3a.19.19,0,0,1,.16-.09.18.18,0,0,1,.19.19.21.21,0,0,1,0,.12l-2.17,3a.2.2,0,0,1-.17.09.18.18,0,0,1-.18-.19A.16.16,0,0,1,405.75,159.41Zm1.46-.52h0a.78.78,0,1,1,1.56,0h0a.81.81,0,0,1-.79.85A.79.79,0,0,1,407.21,158.89Zm1.14,0h0c0-.26-.15-.48-.37-.48s-.35.22-.35.47h0c0,.27.15.49.36.49S408.35,159.15,408.35,158.89Z" style="fill: rgb(38, 50, 56); transform-origin: 406.983px 158.03px;" id="el16hh4go6quqi" class="animable"></path><rect x="399.35" y="162.25" width="17.03" height="0.41" style="fill: rgb(38, 50, 56); transform-origin: 407.865px 162.455px;" id="elpyzt2rc2qfj" class="animable"></rect><rect x="399.35" y="163.36" width="17.03" height="0.41" style="fill: rgb(38, 50, 56); transform-origin: 407.865px 163.565px;" id="elh2xx1amae0o" class="animable"></rect><rect x="399.35" y="164.47" width="17.03" height="0.41" style="fill: rgb(38, 50, 56); transform-origin: 407.865px 164.675px;" id="elirlmsr6kue" class="animable"></rect><rect x="399.35" y="165.58" width="17.03" height="0.41" style="fill: rgb(38, 50, 56); transform-origin: 407.865px 165.785px;" id="el8kqz23lo2nx" class="animable"></rect><rect x="399.35" y="166.69" width="17.03" height="0.41" style="fill: rgb(38, 50, 56); transform-origin: 407.865px 166.895px;" id="elzz6qgsumfk" class="animable"></rect><rect x="399.35" y="167.8" width="17.03" height="0.41" style="fill: rgb(38, 50, 56); transform-origin: 407.865px 168.005px;" id="eltaogo4n0aoh" class="animable"></rect><rect x="399.35" y="168.91" width="17.03" height="0.41" style="fill: rgb(38, 50, 56); transform-origin: 407.865px 169.115px;" id="elfhcec587w2t" class="animable"></rect><polygon points="353.65 133.06 353.39 133.06 353.39 78.14 393.53 78.14 393.53 78.41 353.65 78.41 353.65 133.06" style="fill: rgb(38, 50, 56); transform-origin: 373.46px 105.6px;" id="elxfh10l38jda" class="animable"></polygon><circle cx="392.29" cy="78.28" r="1.53" style="fill: rgb(55, 71, 79); transform-origin: 392.29px 78.28px;" id="elnld2d6t6sq8" class="animable"></circle><path d="M401.14,78.17a1.17,1.17,0,0,1,0,1.67,1.16,1.16,0,0,1-.83.34h0a1.14,1.14,0,0,1-.82-.34.27.27,0,0,1,.38-.38.64.64,0,0,0,.45.19.65.65,0,0,0,.45-.19.64.64,0,0,0-.45-1.09.64.64,0,0,0-.45.18.26.26,0,0,1-.38,0l-.05-.06h0a0,0,0,0,0,0,0v0a0,0,0,0,0,0,0v-.08l.15-1.23a.29.29,0,0,1,.11-.19h0a.21.21,0,0,1,.12,0h1.4a.27.27,0,1,1,0,.53h-1.17l-.05.47a1.1,1.1,0,0,1,.31,0A1.16,1.16,0,0,1,401.14,78.17Z" style="fill: rgb(38, 50, 56); transform-origin: 400.485px 78.5806px;" id="elt52ydku2ner" class="animable"></path><path d="M402.26,78.52a2.09,2.09,0,0,1,.33-1.13,1,1,0,0,1,.88-.52,1.07,1.07,0,0,1,.87.52,2,2,0,0,1,.32,1.13,2,2,0,0,1-.32,1.14,1.1,1.1,0,0,1-.87.52,1.07,1.07,0,0,1-.88-.52A2.12,2.12,0,0,1,402.26,78.52Zm1.87,0a1.6,1.6,0,0,0-.22-.84.49.49,0,0,0-.89,0,1.52,1.52,0,0,0-.23.84,1.49,1.49,0,0,0,.23.84.48.48,0,0,0,.89,0A1.58,1.58,0,0,0,404.13,78.52Z" style="fill: rgb(38, 50, 56); transform-origin: 403.46px 78.525px;" id="eli7wzyctge3" class="animable"></path><path d="M405.58,77.69h0a.8.8,0,0,1,.79-.85.79.79,0,0,1,.78.84h0a.79.79,0,1,1-1.57,0Zm1.14,0h0c0-.27-.15-.49-.36-.49s-.36.22-.36.48h0c0,.27.16.48.37.48S406.72,77.94,406.72,77.69Zm-.59,2.21,2.17-3a.18.18,0,0,1,.16-.09.18.18,0,0,1,.19.19.25.25,0,0,1,0,.12l-2.18,3a.17.17,0,0,1-.16.09.2.2,0,0,1-.19-.19A.17.17,0,0,1,406.13,79.9Zm1.46-.52h0a.78.78,0,1,1,1.56,0h0a.81.81,0,0,1-.79.85A.79.79,0,0,1,407.59,79.38Zm1.14,0h0c0-.26-.15-.48-.37-.48s-.35.22-.35.47h0c0,.27.15.48.36.48S408.73,79.64,408.73,79.38Z" style="fill: rgb(38, 50, 56); transform-origin: 407.363px 78.5199px;" id="el6fp35ln28x2" class="animable"></path><rect x="399.35" y="82.74" width="17.03" height="0.41" style="fill: rgb(38, 50, 56); transform-origin: 407.865px 82.945px;" id="eljefsr9h4qr" class="animable"></rect><rect x="399.35" y="83.85" width="17.03" height="0.41" style="fill: rgb(38, 50, 56); transform-origin: 407.865px 84.055px;" id="ela0fkmqxl1v8" class="animable"></rect><rect x="399.35" y="84.96" width="17.03" height="0.41" style="fill: rgb(38, 50, 56); transform-origin: 407.865px 85.165px;" id="elfyv7ukfufta" class="animable"></rect><rect x="399.35" y="86.07" width="17.03" height="0.41" style="fill: rgb(38, 50, 56); transform-origin: 407.865px 86.275px;" id="elvxxc1o0lfg" class="animable"></rect><rect x="399.35" y="87.18" width="17.03" height="0.41" style="fill: rgb(38, 50, 56); transform-origin: 407.865px 87.385px;" id="elznzax1cxx4m" class="animable"></rect><rect x="399.35" y="88.29" width="17.03" height="0.41" style="fill: rgb(38, 50, 56); transform-origin: 407.865px 88.495px;" id="eltskiysvsbio" class="animable"></rect><rect x="399.35" y="89.4" width="17.03" height="0.41" style="fill: rgb(38, 50, 56); transform-origin: 407.865px 89.605px;" id="elct1g7gsyfs" class="animable"></rect><polygon points="353.67 133.15 353.48 132.97 382.25 103.1 393.53 103.1 393.53 103.36 382.37 103.36 353.67 133.15" style="fill: rgb(38, 50, 56); transform-origin: 373.505px 118.125px;" id="elwnsrdgsngc" class="animable"></polygon><path d="M393.83,103.24a1.54,1.54,0,1,1-1.54-1.54A1.54,1.54,0,0,1,393.83,103.24Z" style="fill: rgb(69, 90, 100); transform-origin: 392.29px 103.24px;" id="el1aleuri10pb" class="animable"></path><path d="M401.7,104a1.15,1.15,0,0,1-2.3.11h0a2.44,2.44,0,0,1,0-.27,3,3,0,0,1,.16-1,1.69,1.69,0,0,1,.62-.81,1.36,1.36,0,0,1,.71-.22.27.27,0,0,1,.27.25.28.28,0,0,1-.25.28.8.8,0,0,0-.45.13,1,1,0,0,0-.3.33l-.06.12a1.13,1.13,0,0,1,.45-.09A1.15,1.15,0,0,1,401.7,104Zm-.53,0a.63.63,0,1,0-.63.62A.63.63,0,0,0,401.17,104Z" style="fill: rgb(38, 50, 56); transform-origin: 400.549px 103.507px;" id="elherao5uo2ra" class="animable"></path><path d="M404.19,103.13a1.17,1.17,0,0,1,.34.84,1.21,1.21,0,0,1-.34.83,1.16,1.16,0,0,1-.83.34h0a1.16,1.16,0,0,1-.83-.34.28.28,0,0,1,0-.38.26.26,0,0,1,.38,0,.64.64,0,0,0,.91,0,.64.64,0,0,0,0-.91.66.66,0,0,0-.45-.18.69.69,0,0,0-.46.18.26.26,0,0,1-.38,0l0-.06h0s0,0,0,0,0,0,0,0h0a.11.11,0,0,1,0-.08l.14-1.23a.3.3,0,0,1,.12-.19h0a.28.28,0,0,1,.13,0h1.39a.27.27,0,1,1,0,.53H403.1l-.06.47a1.12,1.12,0,0,1,.32,0A1.16,1.16,0,0,1,404.19,103.13Z" style="fill: rgb(38, 50, 56); transform-origin: 403.544px 103.541px;" id="elht3k4e6sth5" class="animable"></path><path d="M405.26,102.65h0a.8.8,0,0,1,.79-.85.78.78,0,0,1,.77.84h0a.78.78,0,1,1-1.56,0Zm1.14,0h0c0-.27-.15-.49-.36-.49s-.36.22-.36.48h0c0,.27.15.48.37.48S406.4,102.9,406.4,102.65Zm-.59,2.21,2.17-3a.17.17,0,0,1,.16-.09.19.19,0,0,1,.19.19.21.21,0,0,1,0,.12l-2.18,3a.18.18,0,0,1-.16.09.19.19,0,0,1-.19-.19A.17.17,0,0,1,405.81,104.86Zm1.45-.52h0a.79.79,0,1,1,1.57,0h0a.81.81,0,0,1-.79.85A.8.8,0,0,1,407.26,104.34Zm1.15,0h0a.44.44,0,0,0-.37-.48c-.22,0-.35.22-.35.47h0c0,.27.15.48.36.48S408.41,104.6,408.41,104.34Z" style="fill: rgb(38, 50, 56); transform-origin: 407.047px 103.48px;" id="elj2imejqsiqg" class="animable"></path><rect x="399.35" y="107.7" width="17.03" height="0.41" style="fill: rgb(38, 50, 56); transform-origin: 407.865px 107.905px;" id="el8ypo9v8rd8w" class="animable"></rect><rect x="399.35" y="108.81" width="17.03" height="0.41" style="fill: rgb(38, 50, 56); transform-origin: 407.865px 109.015px;" id="elsv3vl23f767" class="animable"></rect><rect x="399.35" y="109.92" width="17.03" height="0.41" style="fill: rgb(38, 50, 56); transform-origin: 407.865px 110.125px;" id="elaroffgot9bq" class="animable"></rect><rect x="399.35" y="111.03" width="17.03" height="0.41" style="fill: rgb(38, 50, 56); transform-origin: 407.865px 111.235px;" id="el4jy4dg33jmu" class="animable"></rect><rect x="399.35" y="112.14" width="17.03" height="0.41" style="fill: rgb(38, 50, 56); transform-origin: 407.865px 112.345px;" id="elknkspgh2q5" class="animable"></rect><rect x="399.35" y="113.25" width="17.03" height="0.41" style="fill: rgb(38, 50, 56); transform-origin: 407.865px 113.455px;" id="el98lhyfy5ee7" class="animable"></rect><rect x="399.35" y="114.36" width="17.03" height="0.41" style="fill: rgb(38, 50, 56); transform-origin: 407.865px 114.565px;" id="eldphnorzp6l" class="animable"></rect><g id="elmdy915jefv9"><g style="opacity: 0.7; transform-origin: 347.53px 133.08px;" class="animable"><path d="M310.61,133.06a42.91,42.91,0,0,1,42.91-42.9V176A42.91,42.91,0,0,1,310.61,133.06Z" style="fill: rgb(55, 71, 79); transform-origin: 332.065px 133.08px;" id="elktygx0tuob" class="animable"></path><path d="M316.66,133.06a36.85,36.85,0,0,1,62.39-26.57l-25.53,26.57v36.86A36.86,36.86,0,0,1,316.66,133.06Z" style="fill: rgb(69, 90, 100); transform-origin: 347.855px 133.062px;" id="elk2532u6xlx" class="animable"></path><path d="M322.6,133.06a30.93,30.93,0,0,1,61.85,0H353.53V164A30.92,30.92,0,0,1,322.6,133.06Z" style="fill: rgb(38, 50, 56); transform-origin: 353.525px 133.343px;" id="elh52qh3rt16r" class="animable"></path><path d="M329,133.06a24.52,24.52,0,1,1,42.06,17.13l-17.54-17.13v24.52A24.52,24.52,0,0,1,329,133.06Z" style="fill: rgb(69, 90, 100); transform-origin: 353.52px 133.058px;" id="elty5e6uevhm" class="animable"></path><g id="elcku8x4qjqd6"><circle cx="353.53" cy="133.03" r="18.88" style="fill: rgb(235, 235, 235); transform-origin: 353.53px 133.03px; transform: rotate(-67.64deg);" class="animable"></circle></g></g></g></g><g id="freepik--Cursor--inject-28" class="animable" style="transform-origin: 361.19px 122.075px;"><polygon points="369.76 134.23 373.68 143.69 369.77 145.31 365.83 135.79 359.37 140.8 359.37 114.16 378.01 133 369.76 134.23" style="fill: rgb(38, 50, 56); transform-origin: 368.69px 129.735px;" id="elf0wz943e674" class="animable"></polygon><path d="M361.19,107.14a17.47,17.47,0,0,1,0-8.3,17.47,17.47,0,0,1,0,8.3Z" style="fill: rgb(38, 50, 56); transform-origin: 361.19px 102.99px;" id="elk3r5ohmv54p" class="animable"></path><path d="M354,110.11a17.56,17.56,0,0,1-5.87-5.88,17.56,17.56,0,0,1,5.87,5.88Z" style="fill: rgb(38, 50, 56); transform-origin: 351.065px 107.17px;" id="elgcmkix47tm8" class="animable"></path><path d="M351.08,117.26a17.51,17.51,0,0,1-8.31,0,17.51,17.51,0,0,1,8.31,0Z" style="fill: rgb(38, 50, 56); transform-origin: 346.925px 117.26px;" id="el5kv26gr9hum" class="animable"></path><path d="M354,124.41a17.41,17.41,0,0,1-5.87,5.87,15.44,15.44,0,0,1,2.58-3.29A15.77,15.77,0,0,1,354,124.41Z" style="fill: rgb(38, 50, 56); transform-origin: 351.065px 127.345px;" id="eltl8idy6m7uo" class="animable"></path><path d="M371.31,117.26a17.47,17.47,0,0,1,8.3,0,17.47,17.47,0,0,1-8.3,0Z" style="fill: rgb(38, 50, 56); transform-origin: 375.46px 117.26px;" id="el8rzlnd8v9xg" class="animable"></path><path d="M368.35,110.11a17.56,17.56,0,0,1,5.87-5.88,17.56,17.56,0,0,1-5.87,5.88Z" style="fill: rgb(38, 50, 56); transform-origin: 371.285px 107.17px;" id="elanp2shixequ" class="animable"></path></g><defs>     <filter id="active" height="200%">         <feMorphology in="SourceAlpha" result="DILATED" operator="dilate" radius="2"></feMorphology>                <feFlood flood-color="#32DFEC" flood-opacity="1" result="PINK"></feFlood>        <feComposite in="PINK" in2="DILATED" operator="in" result="OUTLINE"></feComposite>        <feMerge>            <feMergeNode in="OUTLINE"></feMergeNode>            <feMergeNode in="SourceGraphic"></feMergeNode>        </feMerge>    </filter>    <filter id="hover" height="200%">        <feMorphology in="SourceAlpha" result="DILATED" operator="dilate" radius="2"></feMorphology>                <feFlood flood-color="#ff0000" flood-opacity="0.5" result="PINK"></feFlood>        <feComposite in="PINK" in2="DILATED" operator="in" result="OUTLINE"></feComposite>        <feMerge>            <feMergeNode in="OUTLINE"></feMergeNode>            <feMergeNode in="SourceGraphic"></feMergeNode>        </feMerge>            <feColorMatrix type="matrix" values="0   0   0   0   0                0   1   0   0   0                0   0   0   0   0                0   0   0   1   0 "></feColorMatrix>    </filter></defs></svg>